%
M48
M72
T01C0.02362
T02C0.02400
T03C0.03200
T04C0.03937
T05C0.04000
T06C0.05118
T07C0.13500
%
T01
X100370Y53165
X103835Y88283
X117457Y106984
X118520Y118244
X97811Y146748
X88598Y116118
X55173Y108402
X157496Y33992
X187378Y90331
X185724Y133008
X190921Y151236
T02
X152693Y122969
X152693Y102969
T03
X139465Y158402
X129465Y158402
X119465Y158402
X109465Y158402
X99465Y158402
X89465Y158402
X79465Y158402
X69465Y158402
X69465Y188402
X79465Y188402
X89465Y188402
X99465Y188402
X109465Y188402
X119465Y188402
X129465Y188402
X139465Y188402
T04
X35764Y146394
X16079Y146394
X181787Y71079
X181787Y51394
T05
X137732Y38244
X127732Y38244
X117732Y38244
X107732Y38244
X97732Y38244
X87732Y38244
X34307Y40921
X34307Y50921
X34307Y60921
X34307Y70921
X34307Y80921
X34307Y90921
X65134Y139976
X75134Y139976
X48559Y170528
X48559Y180528
X154898Y180921
X154898Y170921
T06
X39386Y117732
X13795Y117732
T07
X16748Y16748
X16748Y182102
X182102Y182102
X182102Y16748
M30
