G75*
%MOIN*%
%OFA0B0*%
%FSLAX25Y25*%
%IPPOS*%
%LPD*%
%AMOC8*
5,1,8,0,0,1.08239X$1,22.5*
%
%ADD10C,0.00600*%
%ADD11C,0.05200*%
%ADD12C,0.06000*%
%ADD13C,0.27000*%
%ADD14C,0.04400*%
%ADD15C,0.07677*%
%ADD16OC8,0.07874*%
%ADD17C,0.03962*%
%ADD18C,0.01000*%
%ADD19C,0.03200*%
D10*
X0011399Y0125438D02*
X0011399Y0129709D01*
X0009264Y0127574D02*
X0013535Y0127574D01*
X0046823Y0154503D02*
X0051094Y0154503D01*
X0170012Y0036432D02*
X0174283Y0036432D01*
X0172148Y0038567D02*
X0172148Y0034297D01*
X0174382Y0085723D02*
X0178653Y0085723D01*
D11*
X0139465Y0155802D02*
X0139465Y0161002D01*
X0129465Y0161002D02*
X0129465Y0155802D01*
X0119465Y0155802D02*
X0119465Y0161002D01*
X0109465Y0161002D02*
X0109465Y0155802D01*
X0099465Y0155802D02*
X0099465Y0161002D01*
X0089465Y0161002D02*
X0089465Y0155802D01*
X0079465Y0155802D02*
X0079465Y0161002D01*
X0069465Y0161002D02*
X0069465Y0155802D01*
X0069465Y0185802D02*
X0069465Y0191002D01*
X0079465Y0191002D02*
X0079465Y0185802D01*
X0089465Y0185802D02*
X0089465Y0191002D01*
X0099465Y0191002D02*
X0099465Y0185802D01*
X0109465Y0185802D02*
X0109465Y0191002D01*
X0119465Y0191002D02*
X0119465Y0185802D01*
X0129465Y0185802D02*
X0129465Y0191002D01*
X0139465Y0191002D02*
X0139465Y0185802D01*
D12*
X0151898Y0180921D02*
X0157898Y0180921D01*
X0157898Y0170921D02*
X0151898Y0170921D01*
X0075134Y0142976D02*
X0075134Y0136976D01*
X0065134Y0136976D02*
X0065134Y0142976D01*
X0051559Y0170528D02*
X0045559Y0170528D01*
X0045559Y0180528D02*
X0051559Y0180528D01*
X0037307Y0090921D02*
X0031307Y0090921D01*
X0031307Y0080921D02*
X0037307Y0080921D01*
X0037307Y0070921D02*
X0031307Y0070921D01*
X0031307Y0060921D02*
X0037307Y0060921D01*
X0037307Y0050921D02*
X0031307Y0050921D01*
X0031307Y0040921D02*
X0037307Y0040921D01*
X0087732Y0041244D02*
X0087732Y0035244D01*
X0097732Y0035244D02*
X0097732Y0041244D01*
X0107732Y0041244D02*
X0107732Y0035244D01*
X0117732Y0035244D02*
X0117732Y0041244D01*
X0127732Y0041244D02*
X0127732Y0035244D01*
X0137732Y0035244D02*
X0137732Y0041244D01*
D13*
X0016748Y0016748D03*
X0016748Y0182102D03*
X0182102Y0182102D03*
X0182102Y0016748D03*
D14*
X0154893Y0102969D02*
X0150493Y0102969D01*
X0150493Y0122969D02*
X0154893Y0122969D01*
D15*
X0043224Y0117732D02*
X0035547Y0117732D01*
X0017634Y0117732D02*
X0009957Y0117732D01*
D16*
X0016079Y0146394D03*
X0035764Y0146394D03*
X0181787Y0071079D03*
X0181787Y0051394D03*
D17*
X0157496Y0033992D03*
X0103835Y0088283D03*
X0117457Y0106984D03*
X0118520Y0118244D03*
X0097811Y0146748D03*
X0088598Y0116118D03*
X0055173Y0108402D03*
X0100370Y0053165D03*
X0185724Y0133008D03*
X0190921Y0151236D03*
X0187378Y0090331D03*
D18*
X0181787Y0055488D02*
X0138913Y0098362D01*
X0138913Y0157850D01*
X0139465Y0158402D01*
X0097811Y0148008D02*
X0097811Y0146748D01*
X0097811Y0148008D02*
X0094425Y0151394D01*
X0094425Y0162063D01*
X0079543Y0176945D01*
X0079543Y0188323D01*
X0079465Y0188402D01*
X0055173Y0108402D02*
X0055173Y0085685D01*
X0091748Y0049110D01*
X0099307Y0049110D01*
X0100370Y0050173D01*
X0100370Y0053165D01*
X0107575Y0067614D02*
X0107575Y0038402D01*
X0107732Y0038244D01*
X0127732Y0038244D02*
X0127890Y0038402D01*
X0127890Y0051669D01*
X0117457Y0062102D01*
X0117457Y0106984D01*
X0103835Y0088283D02*
X0103835Y0071354D01*
X0107575Y0067614D01*
X0181787Y0055488D02*
X0181787Y0051394D01*
D19*
X0176737Y0055871D02*
X0175050Y0054184D01*
X0175050Y0048603D01*
X0178997Y0044657D01*
X0184578Y0044657D01*
X0188524Y0048603D01*
X0188524Y0054184D01*
X0184578Y0058131D01*
X0183812Y0058131D01*
X0142213Y0099729D01*
X0142213Y0151095D01*
X0142523Y0151224D01*
X0144042Y0152743D01*
X0144865Y0154727D01*
X0144865Y0162076D01*
X0144042Y0164060D01*
X0142523Y0165579D01*
X0140539Y0166402D01*
X0138390Y0166402D01*
X0136406Y0165579D01*
X0134887Y0164060D01*
X0134465Y0163041D01*
X0134042Y0164060D01*
X0132523Y0165579D01*
X0130539Y0166402D01*
X0128390Y0166402D01*
X0126406Y0165579D01*
X0124887Y0164060D01*
X0124465Y0163041D01*
X0124042Y0164060D01*
X0122523Y0165579D01*
X0120539Y0166402D01*
X0118390Y0166402D01*
X0116406Y0165579D01*
X0114887Y0164060D01*
X0114355Y0162777D01*
X0114284Y0162998D01*
X0113912Y0163727D01*
X0113431Y0164389D01*
X0112852Y0164968D01*
X0112190Y0165449D01*
X0111461Y0165821D01*
X0110682Y0166074D01*
X0109874Y0166202D01*
X0109465Y0166202D01*
X0109465Y0158402D01*
X0109464Y0158402D01*
X0109464Y0158402D01*
X0099465Y0158402D01*
X0099464Y0158402D01*
X0099464Y0166202D01*
X0099055Y0166202D01*
X0098247Y0166074D01*
X0097468Y0165821D01*
X0096739Y0165449D01*
X0096141Y0165014D01*
X0082843Y0178312D01*
X0082843Y0181544D01*
X0084042Y0182743D01*
X0084465Y0183762D01*
X0084887Y0182743D01*
X0086406Y0181224D01*
X0088390Y0180402D01*
X0090539Y0180402D01*
X0092523Y0181224D01*
X0094042Y0182743D01*
X0094574Y0184026D01*
X0094646Y0183805D01*
X0095017Y0183076D01*
X0095498Y0182414D01*
X0096077Y0181835D01*
X0096739Y0181354D01*
X0097468Y0180983D01*
X0098247Y0180730D01*
X0099055Y0180602D01*
X0099464Y0180602D01*
X0099464Y0188401D01*
X0099465Y0188401D01*
X0099465Y0180602D01*
X0099874Y0180602D01*
X0100682Y0180730D01*
X0101461Y0180983D01*
X0102190Y0181354D01*
X0102852Y0181835D01*
X0103431Y0182414D01*
X0103912Y0183076D01*
X0104284Y0183805D01*
X0104465Y0184362D01*
X0104646Y0183805D01*
X0105017Y0183076D01*
X0105498Y0182414D01*
X0106077Y0181835D01*
X0106739Y0181354D01*
X0107468Y0180983D01*
X0108247Y0180730D01*
X0109055Y0180602D01*
X0109464Y0180602D01*
X0109464Y0188401D01*
X0109465Y0188401D01*
X0109465Y0180602D01*
X0109874Y0180602D01*
X0110682Y0180730D01*
X0111461Y0180983D01*
X0112190Y0181354D01*
X0112852Y0181835D01*
X0113431Y0182414D01*
X0113912Y0183076D01*
X0114284Y0183805D01*
X0114355Y0184026D01*
X0114887Y0182743D01*
X0116406Y0181224D01*
X0118390Y0180402D01*
X0120539Y0180402D01*
X0122523Y0181224D01*
X0124042Y0182743D01*
X0124465Y0183762D01*
X0124887Y0182743D01*
X0126406Y0181224D01*
X0128390Y0180402D01*
X0130539Y0180402D01*
X0132523Y0181224D01*
X0134042Y0182743D01*
X0134465Y0183762D01*
X0134887Y0182743D01*
X0136406Y0181224D01*
X0138390Y0180402D01*
X0140539Y0180402D01*
X0142523Y0181224D01*
X0144042Y0182743D01*
X0144865Y0184727D01*
X0144865Y0192076D01*
X0144792Y0192250D01*
X0169199Y0192250D01*
X0169059Y0192111D01*
X0166913Y0188394D01*
X0165802Y0184248D01*
X0165802Y0179956D01*
X0166913Y0175811D01*
X0169059Y0172094D01*
X0172094Y0169059D01*
X0175811Y0166913D01*
X0179956Y0165802D01*
X0184248Y0165802D01*
X0188394Y0166913D01*
X0192111Y0169059D01*
X0192250Y0169199D01*
X0192250Y0029652D01*
X0192111Y0029791D01*
X0188394Y0031937D01*
X0184248Y0033048D01*
X0179956Y0033048D01*
X0175811Y0031937D01*
X0172094Y0029791D01*
X0169059Y0026756D01*
X0166913Y0023040D01*
X0165802Y0018894D01*
X0165802Y0014602D01*
X0166913Y0010456D01*
X0169059Y0006740D01*
X0169199Y0006600D01*
X0029652Y0006600D01*
X0029791Y0006740D01*
X0031937Y0010456D01*
X0033048Y0014602D01*
X0033048Y0018894D01*
X0031937Y0023040D01*
X0029791Y0026756D01*
X0026756Y0029791D01*
X0023040Y0031937D01*
X0018894Y0033048D01*
X0014602Y0033048D01*
X0010456Y0031937D01*
X0006740Y0029791D01*
X0006600Y0029652D01*
X0006600Y0112236D01*
X0007103Y0111945D01*
X0007883Y0111622D01*
X0008698Y0111404D01*
X0009535Y0111294D01*
X0013795Y0111294D01*
X0013795Y0117732D01*
X0013795Y0117732D01*
X0013795Y0111294D01*
X0018056Y0111294D01*
X0018893Y0111404D01*
X0019708Y0111622D01*
X0020488Y0111945D01*
X0021219Y0112367D01*
X0021888Y0112881D01*
X0022485Y0113478D01*
X0022999Y0114148D01*
X0023421Y0114878D01*
X0023744Y0115658D01*
X0023962Y0116473D01*
X0024072Y0117310D01*
X0024072Y0117732D01*
X0013795Y0117732D01*
X0013795Y0117732D01*
X0024072Y0117732D01*
X0024072Y0118154D01*
X0023962Y0118991D01*
X0023744Y0119806D01*
X0023421Y0120586D01*
X0022999Y0121317D01*
X0022485Y0121987D01*
X0021888Y0122583D01*
X0021219Y0123097D01*
X0020488Y0123519D01*
X0019708Y0123842D01*
X0018893Y0124061D01*
X0018056Y0124171D01*
X0014230Y0124171D01*
X0014397Y0124576D01*
X0015291Y0124946D01*
X0016163Y0125818D01*
X0016635Y0126957D01*
X0016635Y0128190D01*
X0016163Y0129330D01*
X0015291Y0130202D01*
X0014397Y0130572D01*
X0014028Y0131465D01*
X0013155Y0132337D01*
X0012016Y0132809D01*
X0010783Y0132809D01*
X0009643Y0132337D01*
X0008771Y0131465D01*
X0008401Y0130572D01*
X0007508Y0130202D01*
X0006636Y0129330D01*
X0006600Y0129242D01*
X0006600Y0169199D01*
X0006740Y0169059D01*
X0010456Y0166913D01*
X0014602Y0165802D01*
X0018894Y0165802D01*
X0023040Y0166913D01*
X0026756Y0169059D01*
X0029791Y0172094D01*
X0031937Y0175811D01*
X0033048Y0179956D01*
X0033048Y0184248D01*
X0031937Y0188394D01*
X0029791Y0192111D01*
X0029652Y0192250D01*
X0064137Y0192250D01*
X0064065Y0192076D01*
X0064065Y0184727D01*
X0064887Y0182743D01*
X0066406Y0181224D01*
X0068390Y0180402D01*
X0070539Y0180402D01*
X0072523Y0181224D01*
X0074042Y0182743D01*
X0074465Y0183762D01*
X0074887Y0182743D01*
X0076243Y0181386D01*
X0076243Y0176288D01*
X0076746Y0175076D01*
X0077674Y0174147D01*
X0086324Y0165498D01*
X0084887Y0164060D01*
X0084465Y0163041D01*
X0084042Y0164060D01*
X0082523Y0165579D01*
X0080539Y0166402D01*
X0078390Y0166402D01*
X0076406Y0165579D01*
X0074887Y0164060D01*
X0074465Y0163041D01*
X0074042Y0164060D01*
X0072523Y0165579D01*
X0070539Y0166402D01*
X0068390Y0166402D01*
X0066406Y0165579D01*
X0064887Y0164060D01*
X0064065Y0162076D01*
X0064065Y0154727D01*
X0064887Y0152743D01*
X0066406Y0151224D01*
X0068390Y0150402D01*
X0070539Y0150402D01*
X0072523Y0151224D01*
X0074042Y0152743D01*
X0074465Y0153762D01*
X0074887Y0152743D01*
X0076406Y0151224D01*
X0078390Y0150402D01*
X0080539Y0150402D01*
X0082523Y0151224D01*
X0084042Y0152743D01*
X0084465Y0153762D01*
X0084887Y0152743D01*
X0086406Y0151224D01*
X0088390Y0150402D01*
X0090539Y0150402D01*
X0091158Y0150658D01*
X0091628Y0149524D01*
X0092556Y0148596D01*
X0093154Y0147998D01*
X0093030Y0147699D01*
X0093030Y0145797D01*
X0093758Y0144040D01*
X0095103Y0142695D01*
X0096860Y0141967D01*
X0098762Y0141967D01*
X0100519Y0142695D01*
X0101864Y0144040D01*
X0102592Y0145797D01*
X0102592Y0147699D01*
X0101864Y0149456D01*
X0100603Y0150717D01*
X0100682Y0150730D01*
X0101461Y0150983D01*
X0102190Y0151354D01*
X0102852Y0151835D01*
X0103431Y0152414D01*
X0103912Y0153076D01*
X0104284Y0153805D01*
X0104465Y0154362D01*
X0104646Y0153805D01*
X0105017Y0153076D01*
X0105498Y0152414D01*
X0106077Y0151835D01*
X0106739Y0151354D01*
X0107468Y0150983D01*
X0108247Y0150730D01*
X0109055Y0150602D01*
X0109464Y0150602D01*
X0109464Y0158401D01*
X0109465Y0158401D01*
X0109465Y0150602D01*
X0109874Y0150602D01*
X0110682Y0150730D01*
X0111461Y0150983D01*
X0112190Y0151354D01*
X0112852Y0151835D01*
X0113431Y0152414D01*
X0113912Y0153076D01*
X0114284Y0153805D01*
X0114355Y0154026D01*
X0114887Y0152743D01*
X0116406Y0151224D01*
X0118390Y0150402D01*
X0120539Y0150402D01*
X0122523Y0151224D01*
X0124042Y0152743D01*
X0124465Y0153762D01*
X0124887Y0152743D01*
X0126406Y0151224D01*
X0128390Y0150402D01*
X0130539Y0150402D01*
X0132523Y0151224D01*
X0134042Y0152743D01*
X0134465Y0153762D01*
X0134887Y0152743D01*
X0135613Y0152016D01*
X0135613Y0097706D01*
X0136116Y0096493D01*
X0137044Y0095565D01*
X0176737Y0055871D01*
X0176241Y0055375D02*
X0128851Y0055375D01*
X0129759Y0054467D02*
X0120757Y0063469D01*
X0120757Y0103523D01*
X0121510Y0104276D01*
X0122238Y0106033D01*
X0122238Y0107935D01*
X0121510Y0109693D01*
X0120165Y0111037D01*
X0118408Y0111765D01*
X0116506Y0111765D01*
X0114748Y0111037D01*
X0113403Y0109693D01*
X0112676Y0107935D01*
X0112676Y0106033D01*
X0113403Y0104276D01*
X0114157Y0103523D01*
X0114157Y0061446D01*
X0114659Y0060233D01*
X0124590Y0050302D01*
X0124590Y0046220D01*
X0124447Y0046161D01*
X0122815Y0044530D01*
X0122604Y0044019D01*
X0122522Y0044179D01*
X0122004Y0044892D01*
X0121380Y0045516D01*
X0120667Y0046034D01*
X0119882Y0046434D01*
X0119044Y0046706D01*
X0118173Y0046844D01*
X0117732Y0046844D01*
X0117292Y0046844D01*
X0116421Y0046706D01*
X0115583Y0046434D01*
X0114797Y0046034D01*
X0114084Y0045516D01*
X0113461Y0044892D01*
X0112943Y0044179D01*
X0112861Y0044019D01*
X0112649Y0044530D01*
X0111018Y0046161D01*
X0110875Y0046220D01*
X0110875Y0068271D01*
X0110372Y0069483D01*
X0109444Y0070412D01*
X0107135Y0072721D01*
X0107135Y0084822D01*
X0107888Y0085575D01*
X0108616Y0087332D01*
X0108616Y0089234D01*
X0107888Y0090992D01*
X0106543Y0092337D01*
X0104786Y0093065D01*
X0102884Y0093065D01*
X0101126Y0092337D01*
X0099781Y0090992D01*
X0099054Y0089234D01*
X0099054Y0087332D01*
X0099781Y0085575D01*
X0100535Y0084822D01*
X0100535Y0070698D01*
X0101037Y0069485D01*
X0104275Y0066247D01*
X0104275Y0056022D01*
X0103078Y0057219D01*
X0101321Y0057946D01*
X0099419Y0057946D01*
X0097662Y0057219D01*
X0096317Y0055874D01*
X0095589Y0054116D01*
X0095589Y0052410D01*
X0093115Y0052410D01*
X0058473Y0087052D01*
X0058473Y0104940D01*
X0059226Y0105693D01*
X0059954Y0107451D01*
X0059954Y0109353D01*
X0059226Y0111110D01*
X0057881Y0112455D01*
X0056124Y0113183D01*
X0054222Y0113183D01*
X0052465Y0112455D01*
X0051120Y0111110D01*
X0050392Y0109353D01*
X0050392Y0107451D01*
X0051120Y0105693D01*
X0051873Y0104940D01*
X0051873Y0085029D01*
X0052376Y0083816D01*
X0088950Y0047241D01*
X0089332Y0046859D01*
X0088886Y0047044D01*
X0086579Y0047044D01*
X0084447Y0046161D01*
X0082815Y0044530D01*
X0081932Y0042398D01*
X0081932Y0034090D01*
X0082815Y0031959D01*
X0084447Y0030327D01*
X0086579Y0029444D01*
X0088886Y0029444D01*
X0091018Y0030327D01*
X0092649Y0031959D01*
X0092732Y0032159D01*
X0092815Y0031959D01*
X0094447Y0030327D01*
X0096579Y0029444D01*
X0098886Y0029444D01*
X0101018Y0030327D01*
X0102649Y0031959D01*
X0102732Y0032159D01*
X0102815Y0031959D01*
X0104447Y0030327D01*
X0106579Y0029444D01*
X0108886Y0029444D01*
X0111018Y0030327D01*
X0112649Y0031959D01*
X0112861Y0032470D01*
X0112943Y0032309D01*
X0113461Y0031596D01*
X0114084Y0030973D01*
X0114797Y0030455D01*
X0115583Y0030054D01*
X0116421Y0029782D01*
X0117292Y0029644D01*
X0117732Y0029644D01*
X0117732Y0038244D01*
X0117732Y0038244D01*
X0117732Y0046844D01*
X0117732Y0038244D01*
X0117732Y0038244D01*
X0117732Y0029644D01*
X0118173Y0029644D01*
X0119044Y0029782D01*
X0119882Y0030054D01*
X0120667Y0030455D01*
X0121380Y0030973D01*
X0122004Y0031596D01*
X0122522Y0032309D01*
X0122604Y0032470D01*
X0122815Y0031959D01*
X0124447Y0030327D01*
X0126579Y0029444D01*
X0128886Y0029444D01*
X0131018Y0030327D01*
X0132649Y0031959D01*
X0132732Y0032159D01*
X0132815Y0031959D01*
X0134447Y0030327D01*
X0136579Y0029444D01*
X0138886Y0029444D01*
X0141018Y0030327D01*
X0142649Y0031959D01*
X0143532Y0034090D01*
X0143532Y0042398D01*
X0142649Y0044530D01*
X0141018Y0046161D01*
X0138886Y0047044D01*
X0136579Y0047044D01*
X0134447Y0046161D01*
X0132815Y0044530D01*
X0132732Y0044329D01*
X0132649Y0044530D01*
X0131190Y0045989D01*
X0131190Y0052326D01*
X0130687Y0053539D01*
X0129759Y0054467D01*
X0131190Y0052176D02*
X0175050Y0052176D01*
X0175050Y0048978D02*
X0131190Y0048978D01*
X0131400Y0045779D02*
X0134065Y0045779D01*
X0141400Y0045779D02*
X0177874Y0045779D01*
X0173904Y0041195D02*
X0172764Y0041667D01*
X0171531Y0041667D01*
X0170392Y0041195D01*
X0169519Y0040323D01*
X0169150Y0039430D01*
X0168256Y0039060D01*
X0167384Y0038188D01*
X0166912Y0037048D01*
X0166912Y0035815D01*
X0167384Y0034676D01*
X0168256Y0033804D01*
X0169150Y0033434D01*
X0169519Y0032541D01*
X0170392Y0031669D01*
X0171531Y0031197D01*
X0172764Y0031197D01*
X0173904Y0031669D01*
X0174776Y0032541D01*
X0175146Y0033434D01*
X0176039Y0033804D01*
X0176911Y0034676D01*
X0177383Y0035815D01*
X0177383Y0037048D01*
X0176911Y0038188D01*
X0176039Y0039060D01*
X0175146Y0039430D01*
X0174776Y0040323D01*
X0173904Y0041195D01*
X0175261Y0039382D02*
X0192250Y0039382D01*
X0192250Y0036184D02*
X0177383Y0036184D01*
X0179722Y0032985D02*
X0174960Y0032985D01*
X0172089Y0029787D02*
X0139713Y0029787D01*
X0135752Y0029787D02*
X0129713Y0029787D01*
X0125752Y0029787D02*
X0119058Y0029787D01*
X0117732Y0029787D02*
X0117732Y0029787D01*
X0116407Y0029787D02*
X0109713Y0029787D01*
X0105752Y0029787D02*
X0099713Y0029787D01*
X0095752Y0029787D02*
X0089713Y0029787D01*
X0085752Y0029787D02*
X0026761Y0029787D01*
X0029888Y0026588D02*
X0168962Y0026588D01*
X0167115Y0023390D02*
X0031735Y0023390D01*
X0032700Y0020191D02*
X0166150Y0020191D01*
X0165802Y0016993D02*
X0033048Y0016993D01*
X0032831Y0013794D02*
X0166019Y0013794D01*
X0166876Y0010596D02*
X0031974Y0010596D01*
X0030171Y0007397D02*
X0168680Y0007397D01*
X0192115Y0029787D02*
X0192250Y0029787D01*
X0192250Y0032985D02*
X0184483Y0032985D01*
X0192250Y0042581D02*
X0143457Y0042581D01*
X0143532Y0039382D02*
X0169034Y0039382D01*
X0166912Y0036184D02*
X0143532Y0036184D01*
X0143074Y0032985D02*
X0169335Y0032985D01*
X0185700Y0045779D02*
X0192250Y0045779D01*
X0192250Y0048978D02*
X0188524Y0048978D01*
X0188524Y0052176D02*
X0192250Y0052176D01*
X0192250Y0055375D02*
X0187334Y0055375D01*
X0183369Y0058573D02*
X0192250Y0058573D01*
X0192250Y0061772D02*
X0180171Y0061772D01*
X0179080Y0064542D02*
X0175250Y0068371D01*
X0175250Y0071079D01*
X0181787Y0071079D01*
X0181787Y0071079D01*
X0181787Y0077616D01*
X0179080Y0077616D01*
X0175250Y0073786D01*
X0175250Y0071079D01*
X0181787Y0071079D01*
X0181787Y0071079D01*
X0181787Y0077616D01*
X0184495Y0077616D01*
X0188324Y0073786D01*
X0188324Y0071079D01*
X0181788Y0071079D01*
X0181788Y0071079D01*
X0188324Y0071079D01*
X0188324Y0068371D01*
X0184495Y0064542D01*
X0181787Y0064542D01*
X0181787Y0071079D01*
X0181787Y0071079D01*
X0181787Y0064542D01*
X0179080Y0064542D01*
X0178651Y0064970D02*
X0176972Y0064970D01*
X0175453Y0068169D02*
X0173774Y0068169D01*
X0175250Y0071367D02*
X0170575Y0071367D01*
X0167377Y0074566D02*
X0176030Y0074566D01*
X0181787Y0074566D02*
X0181787Y0074566D01*
X0181787Y0071367D02*
X0181787Y0071367D01*
X0181787Y0068169D02*
X0181787Y0068169D01*
X0181787Y0064970D02*
X0181787Y0064970D01*
X0184924Y0064970D02*
X0192250Y0064970D01*
X0192250Y0068169D02*
X0188122Y0068169D01*
X0188324Y0071367D02*
X0192250Y0071367D01*
X0192250Y0074566D02*
X0187545Y0074566D01*
X0192250Y0077764D02*
X0164178Y0077764D01*
X0160980Y0080963D02*
X0192250Y0080963D01*
X0192250Y0084161D02*
X0181361Y0084161D01*
X0181281Y0083967D02*
X0181753Y0085107D01*
X0181753Y0086340D01*
X0181281Y0087479D01*
X0180409Y0088351D01*
X0179269Y0088823D01*
X0173766Y0088823D01*
X0172626Y0088351D01*
X0171754Y0087479D01*
X0171282Y0086340D01*
X0171282Y0085107D01*
X0171754Y0083967D01*
X0172626Y0083095D01*
X0173766Y0082623D01*
X0179269Y0082623D01*
X0180409Y0083095D01*
X0181281Y0083967D01*
X0181330Y0087360D02*
X0192250Y0087360D01*
X0192250Y0090558D02*
X0151384Y0090558D01*
X0154583Y0087360D02*
X0171705Y0087360D01*
X0171674Y0084161D02*
X0157781Y0084161D01*
X0151646Y0080963D02*
X0120757Y0080963D01*
X0120757Y0084161D02*
X0148447Y0084161D01*
X0145249Y0087360D02*
X0120757Y0087360D01*
X0120757Y0090558D02*
X0142050Y0090558D01*
X0138852Y0093757D02*
X0120757Y0093757D01*
X0120757Y0096955D02*
X0135924Y0096955D01*
X0135613Y0100154D02*
X0120757Y0100154D01*
X0120757Y0103352D02*
X0135613Y0103352D01*
X0135613Y0106551D02*
X0122238Y0106551D01*
X0121453Y0109749D02*
X0135613Y0109749D01*
X0135613Y0112948D02*
X0056691Y0112948D01*
X0053655Y0112948D02*
X0047828Y0112948D01*
X0046985Y0112104D02*
X0048852Y0113972D01*
X0049863Y0116412D01*
X0049863Y0119053D01*
X0048852Y0121493D01*
X0046985Y0123360D01*
X0044545Y0124371D01*
X0034227Y0124371D01*
X0031787Y0123360D01*
X0029919Y0121493D01*
X0028909Y0119053D01*
X0028909Y0116412D01*
X0029919Y0113972D01*
X0031787Y0112104D01*
X0034227Y0111094D01*
X0044545Y0111094D01*
X0046985Y0112104D01*
X0050556Y0109749D02*
X0006600Y0109749D01*
X0006600Y0106551D02*
X0050765Y0106551D01*
X0051873Y0103352D02*
X0006600Y0103352D01*
X0006600Y0100154D02*
X0051873Y0100154D01*
X0051873Y0096955D02*
X0006600Y0096955D01*
X0006600Y0093757D02*
X0026204Y0093757D01*
X0026390Y0094207D02*
X0025507Y0092075D01*
X0025507Y0089768D01*
X0026390Y0087636D01*
X0028022Y0086004D01*
X0028222Y0085921D01*
X0028022Y0085838D01*
X0026390Y0084207D01*
X0025507Y0082075D01*
X0025507Y0079768D01*
X0026390Y0077636D01*
X0028022Y0076004D01*
X0028222Y0075921D01*
X0028022Y0075838D01*
X0026390Y0074207D01*
X0025507Y0072075D01*
X0025507Y0069768D01*
X0026390Y0067636D01*
X0028022Y0066004D01*
X0028222Y0065921D01*
X0028022Y0065838D01*
X0026390Y0064207D01*
X0025507Y0062075D01*
X0025507Y0059768D01*
X0026390Y0057636D01*
X0028022Y0056004D01*
X0028222Y0055921D01*
X0028022Y0055838D01*
X0026390Y0054207D01*
X0025507Y0052075D01*
X0025507Y0049768D01*
X0026390Y0047636D01*
X0028022Y0046004D01*
X0028222Y0045921D01*
X0028022Y0045838D01*
X0026390Y0044207D01*
X0025507Y0042075D01*
X0025507Y0039768D01*
X0026390Y0037636D01*
X0028022Y0036004D01*
X0030153Y0035121D01*
X0038461Y0035121D01*
X0040593Y0036004D01*
X0042224Y0037636D01*
X0043107Y0039768D01*
X0043107Y0042075D01*
X0042224Y0044207D01*
X0040593Y0045838D01*
X0040392Y0045921D01*
X0040593Y0046004D01*
X0042224Y0047636D01*
X0043107Y0049768D01*
X0043107Y0052075D01*
X0042224Y0054207D01*
X0040593Y0055838D01*
X0040392Y0055921D01*
X0040593Y0056004D01*
X0042224Y0057636D01*
X0043107Y0059768D01*
X0043107Y0062075D01*
X0042224Y0064207D01*
X0040593Y0065838D01*
X0040392Y0065921D01*
X0040593Y0066004D01*
X0042224Y0067636D01*
X0043107Y0069768D01*
X0043107Y0072075D01*
X0042224Y0074207D01*
X0040593Y0075838D01*
X0040392Y0075921D01*
X0040593Y0076004D01*
X0042224Y0077636D01*
X0043107Y0079768D01*
X0043107Y0082075D01*
X0042224Y0084207D01*
X0040593Y0085838D01*
X0040392Y0085921D01*
X0040593Y0086004D01*
X0042224Y0087636D01*
X0043107Y0089768D01*
X0043107Y0092075D01*
X0042224Y0094207D01*
X0040593Y0095838D01*
X0038461Y0096721D01*
X0030153Y0096721D01*
X0028022Y0095838D01*
X0026390Y0094207D01*
X0025507Y0090558D02*
X0006600Y0090558D01*
X0006600Y0087360D02*
X0026666Y0087360D01*
X0026371Y0084161D02*
X0006600Y0084161D01*
X0006600Y0080963D02*
X0025507Y0080963D01*
X0026337Y0077764D02*
X0006600Y0077764D01*
X0006600Y0074566D02*
X0026749Y0074566D01*
X0025507Y0071367D02*
X0006600Y0071367D01*
X0006600Y0068169D02*
X0026169Y0068169D01*
X0027154Y0064970D02*
X0006600Y0064970D01*
X0006600Y0061772D02*
X0025507Y0061772D01*
X0026002Y0058573D02*
X0006600Y0058573D01*
X0006600Y0055375D02*
X0027558Y0055375D01*
X0025549Y0052176D02*
X0006600Y0052176D01*
X0006600Y0048978D02*
X0025834Y0048978D01*
X0027963Y0045779D02*
X0006600Y0045779D01*
X0006600Y0042581D02*
X0025717Y0042581D01*
X0025667Y0039382D02*
X0006600Y0039382D01*
X0006600Y0036184D02*
X0027842Y0036184D01*
X0019129Y0032985D02*
X0082390Y0032985D01*
X0081932Y0036184D02*
X0040772Y0036184D01*
X0042947Y0039382D02*
X0081932Y0039382D01*
X0082008Y0042581D02*
X0042898Y0042581D01*
X0040652Y0045779D02*
X0084065Y0045779D01*
X0087214Y0048978D02*
X0042780Y0048978D01*
X0043065Y0052176D02*
X0084015Y0052176D01*
X0080817Y0055375D02*
X0041056Y0055375D01*
X0042612Y0058573D02*
X0077618Y0058573D01*
X0074420Y0061772D02*
X0043107Y0061772D01*
X0041461Y0064970D02*
X0071221Y0064970D01*
X0068023Y0068169D02*
X0042445Y0068169D01*
X0043107Y0071367D02*
X0064824Y0071367D01*
X0061626Y0074566D02*
X0041865Y0074566D01*
X0042277Y0077764D02*
X0058427Y0077764D01*
X0055229Y0080963D02*
X0043107Y0080963D01*
X0042243Y0084161D02*
X0052232Y0084161D01*
X0051873Y0087360D02*
X0041948Y0087360D01*
X0043107Y0090558D02*
X0051873Y0090558D01*
X0051873Y0093757D02*
X0042410Y0093757D01*
X0058473Y0093757D02*
X0114157Y0093757D01*
X0114157Y0096955D02*
X0058473Y0096955D01*
X0058473Y0100154D02*
X0114157Y0100154D01*
X0114157Y0103352D02*
X0058473Y0103352D01*
X0059582Y0106551D02*
X0112676Y0106551D01*
X0113460Y0109749D02*
X0059790Y0109749D01*
X0049753Y0116146D02*
X0135613Y0116146D01*
X0135613Y0119345D02*
X0049742Y0119345D01*
X0047802Y0122543D02*
X0135613Y0122543D01*
X0135613Y0125742D02*
X0016087Y0125742D01*
X0016324Y0128940D02*
X0135613Y0128940D01*
X0135613Y0132139D02*
X0078499Y0132139D01*
X0078419Y0132059D02*
X0080051Y0133691D01*
X0080934Y0135823D01*
X0080934Y0144130D01*
X0080051Y0146262D01*
X0078419Y0147893D01*
X0076288Y0148776D01*
X0073980Y0148776D01*
X0071848Y0147893D01*
X0070217Y0146262D01*
X0070134Y0146061D01*
X0070051Y0146262D01*
X0068419Y0147893D01*
X0066288Y0148776D01*
X0063980Y0148776D01*
X0061848Y0147893D01*
X0060217Y0146262D01*
X0059334Y0144130D01*
X0059334Y0135823D01*
X0060217Y0133691D01*
X0061848Y0132059D01*
X0063980Y0131176D01*
X0066288Y0131176D01*
X0068419Y0132059D01*
X0070051Y0133691D01*
X0070134Y0133891D01*
X0070217Y0133691D01*
X0071848Y0132059D01*
X0073980Y0131176D01*
X0076288Y0131176D01*
X0078419Y0132059D01*
X0080733Y0135337D02*
X0135613Y0135337D01*
X0135613Y0138536D02*
X0080934Y0138536D01*
X0080934Y0141734D02*
X0135613Y0141734D01*
X0135613Y0144933D02*
X0102234Y0144933D01*
X0102413Y0148132D02*
X0135613Y0148132D01*
X0135613Y0151330D02*
X0132630Y0151330D01*
X0126299Y0151330D02*
X0122630Y0151330D01*
X0116299Y0151330D02*
X0112143Y0151330D01*
X0109465Y0151330D02*
X0109464Y0151330D01*
X0106786Y0151330D02*
X0102143Y0151330D01*
X0104265Y0158402D02*
X0099465Y0158402D01*
X0099465Y0166202D01*
X0099874Y0166202D01*
X0100682Y0166074D01*
X0101461Y0165821D01*
X0102190Y0165449D01*
X0102852Y0164968D01*
X0103431Y0164389D01*
X0103912Y0163727D01*
X0104284Y0162998D01*
X0104465Y0162441D01*
X0104646Y0162998D01*
X0105017Y0163727D01*
X0105498Y0164389D01*
X0106077Y0164968D01*
X0106739Y0165449D01*
X0107468Y0165821D01*
X0108247Y0166074D01*
X0109055Y0166202D01*
X0109464Y0166202D01*
X0109464Y0158402D01*
X0104265Y0158402D01*
X0099465Y0158402D02*
X0099465Y0158402D01*
X0099464Y0160926D02*
X0099465Y0160926D01*
X0099464Y0164124D02*
X0099465Y0164124D01*
X0103623Y0164124D02*
X0105306Y0164124D01*
X0109464Y0164124D02*
X0109465Y0164124D01*
X0109464Y0160926D02*
X0109465Y0160926D01*
X0109464Y0157727D02*
X0109465Y0157727D01*
X0109464Y0154529D02*
X0109465Y0154529D01*
X0113623Y0164124D02*
X0114950Y0164124D01*
X0123979Y0164124D02*
X0124950Y0164124D01*
X0133979Y0164124D02*
X0134950Y0164124D01*
X0143979Y0164124D02*
X0192250Y0164124D01*
X0192250Y0167323D02*
X0189103Y0167323D01*
X0192250Y0160926D02*
X0144865Y0160926D01*
X0144865Y0157727D02*
X0192250Y0157727D01*
X0192250Y0154529D02*
X0144782Y0154529D01*
X0142630Y0151330D02*
X0192250Y0151330D01*
X0192250Y0148132D02*
X0142213Y0148132D01*
X0142213Y0144933D02*
X0192250Y0144933D01*
X0192250Y0141734D02*
X0142213Y0141734D01*
X0142213Y0138536D02*
X0192250Y0138536D01*
X0192250Y0135337D02*
X0142213Y0135337D01*
X0142213Y0132139D02*
X0192250Y0132139D01*
X0192250Y0128940D02*
X0142213Y0128940D01*
X0142213Y0125742D02*
X0146230Y0125742D01*
X0146254Y0125801D02*
X0145493Y0123963D01*
X0145493Y0121974D01*
X0146254Y0120136D01*
X0147661Y0118730D01*
X0149498Y0117969D01*
X0155887Y0117969D01*
X0157725Y0118730D01*
X0159132Y0120136D01*
X0159893Y0121974D01*
X0159893Y0123963D01*
X0159132Y0125801D01*
X0157725Y0127207D01*
X0155887Y0127968D01*
X0149498Y0127968D01*
X0147661Y0127207D01*
X0146254Y0125801D01*
X0145493Y0122543D02*
X0142213Y0122543D01*
X0142213Y0119345D02*
X0147045Y0119345D01*
X0142213Y0116146D02*
X0192250Y0116146D01*
X0192250Y0119345D02*
X0158340Y0119345D01*
X0159893Y0122543D02*
X0192250Y0122543D01*
X0192250Y0125742D02*
X0159156Y0125742D01*
X0155887Y0107968D02*
X0149498Y0107968D01*
X0147661Y0107207D01*
X0146254Y0105801D01*
X0145493Y0103963D01*
X0145493Y0101974D01*
X0146254Y0100136D01*
X0147661Y0098730D01*
X0149498Y0097969D01*
X0155887Y0097969D01*
X0157725Y0098730D01*
X0159132Y0100136D01*
X0159893Y0101974D01*
X0159893Y0103963D01*
X0159132Y0105801D01*
X0157725Y0107207D01*
X0155887Y0107968D01*
X0158382Y0106551D02*
X0192250Y0106551D01*
X0192250Y0103352D02*
X0159893Y0103352D01*
X0159139Y0100154D02*
X0192250Y0100154D01*
X0192250Y0096955D02*
X0144987Y0096955D01*
X0146247Y0100154D02*
X0142213Y0100154D01*
X0142213Y0103352D02*
X0145493Y0103352D01*
X0147004Y0106551D02*
X0142213Y0106551D01*
X0142213Y0109749D02*
X0192250Y0109749D01*
X0192250Y0112948D02*
X0142213Y0112948D01*
X0148186Y0093757D02*
X0192250Y0093757D01*
X0164440Y0068169D02*
X0120757Y0068169D01*
X0120757Y0064970D02*
X0167638Y0064970D01*
X0170837Y0061772D02*
X0122454Y0061772D01*
X0125653Y0058573D02*
X0174035Y0058573D01*
X0161241Y0071367D02*
X0120757Y0071367D01*
X0120757Y0074566D02*
X0158043Y0074566D01*
X0154844Y0077764D02*
X0120757Y0077764D01*
X0114157Y0077764D02*
X0107135Y0077764D01*
X0107135Y0074566D02*
X0114157Y0074566D01*
X0114157Y0071367D02*
X0108489Y0071367D01*
X0110875Y0068169D02*
X0114157Y0068169D01*
X0114157Y0064970D02*
X0110875Y0064970D01*
X0110875Y0061772D02*
X0114157Y0061772D01*
X0116319Y0058573D02*
X0110875Y0058573D01*
X0110875Y0055375D02*
X0119517Y0055375D01*
X0122716Y0052176D02*
X0110875Y0052176D01*
X0110875Y0048978D02*
X0124590Y0048978D01*
X0124065Y0045779D02*
X0121018Y0045779D01*
X0117732Y0045779D02*
X0117732Y0045779D01*
X0117732Y0042581D02*
X0117732Y0042581D01*
X0117732Y0039382D02*
X0117732Y0039382D01*
X0117732Y0036184D02*
X0117732Y0036184D01*
X0117732Y0032985D02*
X0117732Y0032985D01*
X0114447Y0045779D02*
X0111400Y0045779D01*
X0104275Y0058573D02*
X0086952Y0058573D01*
X0090150Y0055375D02*
X0096110Y0055375D01*
X0104275Y0061772D02*
X0083753Y0061772D01*
X0080555Y0064970D02*
X0104275Y0064970D01*
X0102353Y0068169D02*
X0077356Y0068169D01*
X0074158Y0071367D02*
X0100535Y0071367D01*
X0100535Y0074566D02*
X0070959Y0074566D01*
X0067761Y0077764D02*
X0100535Y0077764D01*
X0100535Y0080963D02*
X0064562Y0080963D01*
X0061364Y0084161D02*
X0100535Y0084161D01*
X0099054Y0087360D02*
X0058473Y0087360D01*
X0058473Y0090558D02*
X0099602Y0090558D01*
X0107135Y0084161D02*
X0114157Y0084161D01*
X0114157Y0080963D02*
X0107135Y0080963D01*
X0108616Y0087360D02*
X0114157Y0087360D01*
X0114157Y0090558D02*
X0108067Y0090558D01*
X0071769Y0132139D02*
X0068499Y0132139D01*
X0061769Y0132139D02*
X0013353Y0132139D01*
X0009446Y0132139D02*
X0006600Y0132139D01*
X0006600Y0135337D02*
X0059535Y0135337D01*
X0059334Y0138536D02*
X0006600Y0138536D01*
X0006600Y0141734D02*
X0011210Y0141734D01*
X0009342Y0143603D02*
X0013288Y0139657D01*
X0018869Y0139657D01*
X0022816Y0143603D01*
X0022816Y0149184D01*
X0018869Y0153131D01*
X0013288Y0153131D01*
X0009342Y0149184D01*
X0009342Y0143603D01*
X0009342Y0144933D02*
X0006600Y0144933D01*
X0006600Y0148132D02*
X0009342Y0148132D01*
X0011488Y0151330D02*
X0006600Y0151330D01*
X0006600Y0154529D02*
X0043723Y0154529D01*
X0043723Y0155119D02*
X0043723Y0153886D01*
X0044195Y0152747D01*
X0045067Y0151875D01*
X0046207Y0151403D01*
X0051710Y0151403D01*
X0052850Y0151875D01*
X0053722Y0152747D01*
X0054194Y0153886D01*
X0054194Y0155119D01*
X0053722Y0156259D01*
X0052850Y0157131D01*
X0051710Y0157603D01*
X0046207Y0157603D01*
X0045067Y0157131D01*
X0044195Y0156259D01*
X0043723Y0155119D01*
X0040072Y0151330D02*
X0066299Y0151330D01*
X0067844Y0148132D02*
X0072423Y0148132D01*
X0072630Y0151330D02*
X0076299Y0151330D01*
X0077844Y0148132D02*
X0093020Y0148132D01*
X0093388Y0144933D02*
X0080601Y0144933D01*
X0082630Y0151330D02*
X0086299Y0151330D01*
X0084950Y0164124D02*
X0083979Y0164124D01*
X0084499Y0167323D02*
X0056509Y0167323D01*
X0056476Y0167242D02*
X0057359Y0169374D01*
X0057359Y0171681D01*
X0056476Y0173813D01*
X0054844Y0175445D01*
X0054644Y0175528D01*
X0054844Y0175611D01*
X0056476Y0177242D01*
X0057359Y0179374D01*
X0057359Y0181681D01*
X0056476Y0183813D01*
X0054844Y0185445D01*
X0052713Y0186328D01*
X0044405Y0186328D01*
X0042274Y0185445D01*
X0040642Y0183813D01*
X0039759Y0181681D01*
X0039759Y0179374D01*
X0040642Y0177242D01*
X0042274Y0175611D01*
X0042474Y0175528D01*
X0042274Y0175445D01*
X0040642Y0173813D01*
X0039759Y0171681D01*
X0039759Y0169374D01*
X0040642Y0167242D01*
X0042274Y0165611D01*
X0044405Y0164728D01*
X0052713Y0164728D01*
X0054844Y0165611D01*
X0056476Y0167242D01*
X0057359Y0170521D02*
X0081300Y0170521D01*
X0078102Y0173720D02*
X0056515Y0173720D01*
X0056152Y0176918D02*
X0076243Y0176918D01*
X0077674Y0174147D02*
X0077674Y0174147D01*
X0076243Y0180117D02*
X0057359Y0180117D01*
X0056682Y0183315D02*
X0064650Y0183315D01*
X0064065Y0186514D02*
X0032441Y0186514D01*
X0031176Y0189712D02*
X0064065Y0189712D01*
X0074280Y0183315D02*
X0074650Y0183315D01*
X0082843Y0180117D02*
X0146098Y0180117D01*
X0146098Y0179768D02*
X0146098Y0182075D01*
X0146981Y0184207D01*
X0148612Y0185838D01*
X0150744Y0186721D01*
X0159051Y0186721D01*
X0161183Y0185838D01*
X0162815Y0184207D01*
X0163698Y0182075D01*
X0163698Y0179768D01*
X0162815Y0177636D01*
X0161183Y0176004D01*
X0160983Y0175921D01*
X0161183Y0175838D01*
X0162815Y0174207D01*
X0163698Y0172075D01*
X0163698Y0169768D01*
X0162815Y0167636D01*
X0161183Y0166004D01*
X0159051Y0165121D01*
X0150744Y0165121D01*
X0148612Y0166004D01*
X0146981Y0167636D01*
X0146098Y0169768D01*
X0146098Y0172075D01*
X0146981Y0174207D01*
X0148612Y0175838D01*
X0148813Y0175921D01*
X0148612Y0176004D01*
X0146981Y0177636D01*
X0146098Y0179768D01*
X0147698Y0176918D02*
X0084237Y0176918D01*
X0087435Y0173720D02*
X0146779Y0173720D01*
X0146098Y0170521D02*
X0090634Y0170521D01*
X0093832Y0167323D02*
X0147294Y0167323D01*
X0162501Y0167323D02*
X0175102Y0167323D01*
X0170632Y0170521D02*
X0163698Y0170521D01*
X0163016Y0173720D02*
X0168121Y0173720D01*
X0166616Y0176918D02*
X0162097Y0176918D01*
X0163698Y0180117D02*
X0165802Y0180117D01*
X0165802Y0183315D02*
X0163184Y0183315D01*
X0166409Y0186514D02*
X0159553Y0186514D01*
X0167674Y0189712D02*
X0144865Y0189712D01*
X0144865Y0186514D02*
X0150243Y0186514D01*
X0146611Y0183315D02*
X0144280Y0183315D01*
X0134650Y0183315D02*
X0134280Y0183315D01*
X0124650Y0183315D02*
X0124280Y0183315D01*
X0114650Y0183315D02*
X0114034Y0183315D01*
X0109465Y0183315D02*
X0109464Y0183315D01*
X0109464Y0186514D02*
X0109465Y0186514D01*
X0109464Y0188402D02*
X0099465Y0188402D01*
X0104265Y0188402D01*
X0109464Y0188402D01*
X0109464Y0188402D01*
X0104895Y0183315D02*
X0104034Y0183315D01*
X0099465Y0183315D02*
X0099464Y0183315D01*
X0099464Y0186514D02*
X0099465Y0186514D01*
X0099465Y0188402D02*
X0099465Y0188402D01*
X0094895Y0183315D02*
X0094280Y0183315D01*
X0084650Y0183315D02*
X0084280Y0183315D01*
X0074950Y0164124D02*
X0073979Y0164124D01*
X0064950Y0164124D02*
X0006600Y0164124D01*
X0006600Y0167323D02*
X0009747Y0167323D01*
X0006600Y0160926D02*
X0064065Y0160926D01*
X0064065Y0157727D02*
X0006600Y0157727D01*
X0020670Y0151330D02*
X0031455Y0151330D01*
X0033056Y0152931D02*
X0029227Y0149101D01*
X0029227Y0146394D01*
X0035764Y0146394D01*
X0035764Y0146394D01*
X0035764Y0152931D01*
X0038471Y0152931D01*
X0042301Y0149101D01*
X0042301Y0146394D01*
X0035764Y0146394D01*
X0035764Y0146394D01*
X0035764Y0152931D01*
X0033056Y0152931D01*
X0035764Y0151330D02*
X0035764Y0151330D01*
X0035764Y0148132D02*
X0035764Y0148132D01*
X0035764Y0146394D02*
X0035764Y0146394D01*
X0042301Y0146394D01*
X0042301Y0143686D01*
X0038471Y0139857D01*
X0035764Y0139857D01*
X0035764Y0146394D01*
X0035764Y0146394D01*
X0029227Y0146394D01*
X0029227Y0143686D01*
X0033056Y0139857D01*
X0035764Y0139857D01*
X0035764Y0146394D01*
X0035764Y0144933D02*
X0035764Y0144933D01*
X0035764Y0141734D02*
X0035764Y0141734D01*
X0031178Y0141734D02*
X0020947Y0141734D01*
X0022816Y0144933D02*
X0029227Y0144933D01*
X0029227Y0148132D02*
X0022816Y0148132D01*
X0040349Y0141734D02*
X0059334Y0141734D01*
X0059666Y0144933D02*
X0042301Y0144933D01*
X0042301Y0148132D02*
X0062423Y0148132D01*
X0064147Y0154529D02*
X0054194Y0154529D01*
X0040609Y0167323D02*
X0023749Y0167323D01*
X0028218Y0170521D02*
X0039759Y0170521D01*
X0040603Y0173720D02*
X0030730Y0173720D01*
X0032234Y0176918D02*
X0040966Y0176918D01*
X0039759Y0180117D02*
X0033048Y0180117D01*
X0033048Y0183315D02*
X0040436Y0183315D01*
X0030970Y0122543D02*
X0021928Y0122543D01*
X0023867Y0119345D02*
X0029030Y0119345D01*
X0029019Y0116146D02*
X0023875Y0116146D01*
X0021955Y0112948D02*
X0030943Y0112948D01*
X0013795Y0112948D02*
X0013795Y0112948D01*
X0013795Y0116146D02*
X0013795Y0116146D01*
X0014367Y0032985D02*
X0006600Y0032985D01*
X0006600Y0029787D02*
X0006735Y0029787D01*
M02*
