G75*
%MOIN*%
%OFA0B0*%
%FSLAX25Y25*%
%IPPOS*%
%LPD*%
%AMOC8*
5,1,8,0,0,1.08239X$1,22.5*
%
%ADD10C,0.00600*%
%ADD11R,0.06299X0.07087*%
%ADD12R,0.13780X0.06299*%
%ADD13C,0.05200*%
%ADD14C,0.06000*%
%ADD15R,0.05906X0.05906*%
%ADD16C,0.27000*%
%ADD17C,0.04400*%
%ADD18R,0.06299X0.07874*%
%ADD19R,0.07874X0.06299*%
%ADD20C,0.07677*%
%ADD21OC8,0.07874*%
%ADD22R,0.05800X0.01900*%
%ADD23R,0.01900X0.05800*%
%ADD24C,0.01000*%
%ADD25C,0.03962*%
D10*
X0068780Y0016261D02*
X0070915Y0016261D01*
X0069848Y0016261D02*
X0069848Y0022666D01*
X0070915Y0022666D02*
X0068780Y0022666D01*
X0073077Y0020531D02*
X0076280Y0020531D01*
X0077348Y0019463D01*
X0077348Y0016261D01*
X0079523Y0017328D02*
X0079523Y0019463D01*
X0080590Y0020531D01*
X0083793Y0020531D01*
X0083793Y0015193D01*
X0082726Y0014125D01*
X0081658Y0014125D01*
X0080590Y0016261D02*
X0079523Y0017328D01*
X0080590Y0016261D02*
X0083793Y0016261D01*
X0085968Y0016261D02*
X0087036Y0016261D01*
X0087036Y0017328D01*
X0085968Y0017328D01*
X0085968Y0016261D01*
X0095637Y0017328D02*
X0096704Y0016261D01*
X0098839Y0016261D01*
X0099907Y0017328D01*
X0099907Y0021599D01*
X0098839Y0022666D01*
X0096704Y0022666D01*
X0095637Y0021599D01*
X0095637Y0017328D01*
X0102082Y0016261D02*
X0105285Y0016261D01*
X0106352Y0017328D01*
X0105285Y0018396D01*
X0103150Y0018396D01*
X0102082Y0019463D01*
X0103150Y0020531D01*
X0106352Y0020531D01*
X0108528Y0019463D02*
X0108528Y0017328D01*
X0109595Y0016261D01*
X0112798Y0016261D01*
X0114973Y0017328D02*
X0116041Y0018396D01*
X0119243Y0018396D01*
X0119243Y0019463D02*
X0119243Y0016261D01*
X0116041Y0016261D01*
X0114973Y0017328D01*
X0116041Y0020531D02*
X0118176Y0020531D01*
X0119243Y0019463D01*
X0121419Y0018396D02*
X0123554Y0020531D01*
X0124621Y0020531D01*
X0121419Y0020531D02*
X0121419Y0016261D01*
X0112798Y0020531D02*
X0109595Y0020531D01*
X0108528Y0019463D01*
X0133235Y0017328D02*
X0134303Y0016261D01*
X0136438Y0016261D01*
X0137506Y0017328D01*
X0139681Y0017328D02*
X0140748Y0018396D01*
X0143951Y0018396D01*
X0143951Y0019463D02*
X0143951Y0016261D01*
X0140748Y0016261D01*
X0139681Y0017328D01*
X0140748Y0020531D02*
X0142884Y0020531D01*
X0143951Y0019463D01*
X0146126Y0018396D02*
X0148261Y0020531D01*
X0149329Y0020531D01*
X0151498Y0020531D02*
X0153633Y0016261D01*
X0155768Y0020531D01*
X0159011Y0020531D02*
X0161146Y0020531D01*
X0162213Y0019463D01*
X0162213Y0016261D01*
X0159011Y0016261D01*
X0157943Y0017328D01*
X0159011Y0018396D01*
X0162213Y0018396D01*
X0166524Y0020531D02*
X0166524Y0015193D01*
X0165456Y0014125D01*
X0164389Y0014125D01*
X0168686Y0017328D02*
X0169753Y0018396D01*
X0172956Y0018396D01*
X0172956Y0019463D02*
X0172956Y0016261D01*
X0169753Y0016261D01*
X0168686Y0017328D01*
X0169753Y0020531D02*
X0171888Y0020531D01*
X0172956Y0019463D01*
X0175131Y0016261D02*
X0177266Y0016261D01*
X0176199Y0016261D02*
X0176199Y0022666D01*
X0175131Y0022666D01*
X0166524Y0022666D02*
X0166524Y0023734D01*
X0146126Y0020531D02*
X0146126Y0016261D01*
X0137506Y0021599D02*
X0136438Y0022666D01*
X0134303Y0022666D01*
X0133235Y0021599D01*
X0133235Y0017328D01*
X0073077Y0016261D02*
X0073077Y0020531D01*
D11*
X0174110Y0100409D03*
X0185134Y0100409D03*
X0184346Y0121472D03*
X0173323Y0121472D03*
D12*
X0180764Y0151669D03*
X0159504Y0151669D03*
D13*
X0139465Y0155802D02*
X0139465Y0161002D01*
X0129465Y0161002D02*
X0129465Y0155802D01*
X0119465Y0155802D02*
X0119465Y0161002D01*
X0109465Y0161002D02*
X0109465Y0155802D01*
X0099465Y0155802D02*
X0099465Y0161002D01*
X0089465Y0161002D02*
X0089465Y0155802D01*
X0079465Y0155802D02*
X0079465Y0161002D01*
X0069465Y0161002D02*
X0069465Y0155802D01*
X0069465Y0185802D02*
X0069465Y0191002D01*
X0079465Y0191002D02*
X0079465Y0185802D01*
X0089465Y0185802D02*
X0089465Y0191002D01*
X0099465Y0191002D02*
X0099465Y0185802D01*
X0109465Y0185802D02*
X0109465Y0191002D01*
X0119465Y0191002D02*
X0119465Y0185802D01*
X0129465Y0185802D02*
X0129465Y0191002D01*
X0139465Y0191002D02*
X0139465Y0185802D01*
D14*
X0151898Y0180921D02*
X0157898Y0180921D01*
X0157898Y0170921D02*
X0151898Y0170921D01*
X0075134Y0142976D02*
X0075134Y0136976D01*
X0065134Y0136976D02*
X0065134Y0142976D01*
X0051559Y0170528D02*
X0045559Y0170528D01*
X0045559Y0180528D02*
X0051559Y0180528D01*
X0037307Y0090921D02*
X0031307Y0090921D01*
X0031307Y0080921D02*
X0037307Y0080921D01*
X0037307Y0070921D02*
X0031307Y0070921D01*
X0031307Y0060921D02*
X0037307Y0060921D01*
X0037307Y0050921D02*
X0031307Y0050921D01*
X0031307Y0040921D02*
X0037307Y0040921D01*
X0087732Y0041244D02*
X0087732Y0035244D01*
X0097732Y0035244D02*
X0097732Y0041244D01*
X0107732Y0041244D02*
X0107732Y0035244D01*
X0117732Y0035244D02*
X0117732Y0041244D01*
X0127732Y0041244D02*
X0127732Y0035244D01*
X0137732Y0035244D02*
X0137732Y0041244D01*
D15*
X0147654Y0043362D03*
X0147496Y0057102D03*
X0148008Y0070291D03*
X0161787Y0070291D03*
X0161276Y0057102D03*
X0161433Y0043362D03*
D16*
X0016748Y0016748D03*
X0016748Y0182102D03*
X0182102Y0182102D03*
X0182102Y0016748D03*
D17*
X0154893Y0102969D02*
X0150493Y0102969D01*
X0150493Y0122969D02*
X0154893Y0122969D01*
D18*
X0066118Y0117693D03*
X0055094Y0117693D03*
D19*
X0095488Y0070803D03*
X0095488Y0059780D03*
X0111709Y0059346D03*
X0111709Y0070370D03*
X0124937Y0070409D03*
X0124937Y0059386D03*
X0138205Y0059228D03*
X0138205Y0070252D03*
D20*
X0043224Y0117732D02*
X0035547Y0117732D01*
X0017634Y0117732D02*
X0009957Y0117732D01*
D21*
X0016079Y0146394D03*
X0035764Y0146394D03*
X0181787Y0071079D03*
X0181787Y0051394D03*
D22*
X0126592Y0100143D03*
X0126592Y0103243D03*
X0126592Y0106443D03*
X0126592Y0109543D03*
X0126592Y0112743D03*
X0126592Y0115843D03*
X0126592Y0118943D03*
X0126592Y0122143D03*
X0126592Y0125243D03*
X0126592Y0128443D03*
X0126592Y0131543D03*
X0081392Y0131543D03*
X0081392Y0128443D03*
X0081392Y0125243D03*
X0081392Y0122143D03*
X0081392Y0118943D03*
X0081392Y0115843D03*
X0081392Y0112743D03*
X0081392Y0109543D03*
X0081392Y0106443D03*
X0081392Y0103243D03*
X0081392Y0100143D03*
D23*
X0088292Y0093243D03*
X0091392Y0093243D03*
X0094592Y0093243D03*
X0097692Y0093243D03*
X0100892Y0093243D03*
X0103992Y0093243D03*
X0107092Y0093243D03*
X0110292Y0093243D03*
X0113392Y0093243D03*
X0116592Y0093243D03*
X0119692Y0093243D03*
X0119692Y0138443D03*
X0116592Y0138443D03*
X0113392Y0138443D03*
X0110292Y0138443D03*
X0107092Y0138443D03*
X0103992Y0138443D03*
X0100892Y0138443D03*
X0097692Y0138443D03*
X0094592Y0138443D03*
X0091392Y0138443D03*
X0088292Y0138443D03*
D24*
X0076668Y0138443D01*
X0075134Y0139976D01*
X0073568Y0131543D02*
X0065134Y0139976D01*
X0073568Y0131543D02*
X0081392Y0131543D01*
X0081392Y0128443D02*
X0120647Y0128443D01*
X0131984Y0139780D01*
X0162339Y0139780D01*
X0171039Y0148480D01*
X0171039Y0156827D01*
X0166354Y0161512D01*
X0154504Y0161512D01*
X0149504Y0156512D01*
X0149504Y0149858D01*
X0148598Y0148953D01*
X0131394Y0148953D01*
X0129425Y0150921D01*
X0129425Y0158362D01*
X0129465Y0158402D01*
X0123441Y0162378D02*
X0123441Y0167339D01*
X0123717Y0167063D01*
X0154858Y0167063D01*
X0154898Y0167102D01*
X0154898Y0170921D01*
X0154898Y0180921D02*
X0144110Y0170134D01*
X0093323Y0170134D01*
X0089465Y0166276D01*
X0089465Y0158402D01*
X0079465Y0158402D02*
X0079465Y0151276D01*
X0054228Y0151276D01*
X0049583Y0146630D01*
X0049583Y0142339D01*
X0063441Y0128480D01*
X0067693Y0128480D01*
X0074110Y0122063D01*
X0074110Y0119780D01*
X0074947Y0118943D01*
X0081392Y0118943D01*
X0081392Y0116118D02*
X0081392Y0115843D01*
X0081392Y0116118D02*
X0088598Y0116118D01*
X0081402Y0112732D02*
X0117535Y0112732D01*
X0117535Y0107063D01*
X0117457Y0106984D01*
X0117535Y0112732D02*
X0120646Y0115843D01*
X0126592Y0115843D01*
X0126592Y0118943D02*
X0118520Y0118244D01*
X0126592Y0122143D02*
X0126908Y0121827D01*
X0134228Y0121827D01*
X0152693Y0103362D01*
X0152693Y0102969D01*
X0155252Y0100409D01*
X0174110Y0100409D01*
X0185134Y0100409D02*
X0185134Y0092575D01*
X0187378Y0090331D01*
X0161787Y0070291D02*
X0161276Y0070291D01*
X0161276Y0057102D01*
X0161433Y0057102D01*
X0161433Y0043362D01*
X0158677Y0036472D01*
X0157496Y0033992D01*
X0158520Y0043520D02*
X0161433Y0043362D01*
X0161276Y0057102D02*
X0159031Y0057614D01*
X0147890Y0057102D02*
X0143283Y0052496D01*
X0131827Y0052496D01*
X0124937Y0059386D01*
X0124937Y0070409D02*
X0124937Y0077102D01*
X0113559Y0088480D01*
X0113559Y0090449D01*
X0113008Y0091000D01*
X0113008Y0092858D01*
X0113392Y0093243D01*
X0116592Y0093243D02*
X0116906Y0092929D01*
X0116906Y0088638D01*
X0135291Y0070252D01*
X0138205Y0070252D01*
X0148008Y0070291D02*
X0149268Y0070291D01*
X0138205Y0059228D01*
X0147496Y0057102D02*
X0147890Y0057102D01*
X0141039Y0048598D02*
X0122457Y0048598D01*
X0111709Y0059346D01*
X0111709Y0070370D02*
X0111709Y0087142D01*
X0110370Y0088480D01*
X0110370Y0093165D01*
X0110292Y0093243D01*
X0107417Y0092917D02*
X0107092Y0093243D01*
X0107417Y0092917D02*
X0107417Y0087220D01*
X0095488Y0075291D01*
X0095488Y0070803D01*
X0092378Y0078323D02*
X0101000Y0086945D01*
X0101000Y0093135D01*
X0100892Y0093243D01*
X0097692Y0093243D02*
X0097654Y0093204D01*
X0097654Y0086906D01*
X0051669Y0040921D01*
X0034307Y0040921D01*
X0034307Y0050921D02*
X0057496Y0050921D01*
X0094465Y0087890D01*
X0094465Y0093115D01*
X0094592Y0093243D01*
X0103992Y0093243D02*
X0103992Y0088441D01*
X0103835Y0088283D01*
X0092378Y0078323D02*
X0091827Y0078323D01*
X0082181Y0068677D01*
X0082181Y0062811D01*
X0097732Y0047260D01*
X0097732Y0038244D01*
X0100370Y0053165D02*
X0095488Y0058047D01*
X0095488Y0059780D01*
X0081392Y0100143D02*
X0081361Y0100173D01*
X0076433Y0100173D01*
X0037181Y0060921D01*
X0034307Y0060921D01*
X0034307Y0070921D02*
X0043205Y0070921D01*
X0075567Y0103283D01*
X0081351Y0103283D01*
X0081392Y0103243D01*
X0081343Y0106394D02*
X0081392Y0106443D01*
X0081343Y0106394D02*
X0074150Y0106394D01*
X0048677Y0080921D01*
X0034307Y0080921D01*
X0034307Y0090921D02*
X0052142Y0090921D01*
X0070803Y0109583D01*
X0081352Y0109583D01*
X0081392Y0109543D01*
X0081402Y0112732D02*
X0081392Y0112743D01*
X0081363Y0112772D01*
X0074780Y0112772D01*
X0069858Y0117693D01*
X0066118Y0117693D01*
X0050803Y0133008D01*
X0021354Y0133008D01*
X0016079Y0138283D01*
X0016079Y0146394D01*
X0033795Y0164110D01*
X0033795Y0188283D01*
X0033913Y0188402D01*
X0069465Y0188402D01*
X0073677Y0179346D02*
X0089268Y0179346D01*
X0089465Y0179543D01*
X0089465Y0188402D01*
X0081630Y0177378D02*
X0080921Y0176669D01*
X0080921Y0176118D01*
X0071984Y0167181D01*
X0065173Y0167181D01*
X0057496Y0159504D01*
X0042181Y0159504D01*
X0040331Y0161354D01*
X0040331Y0172299D01*
X0048559Y0180528D01*
X0048874Y0170843D02*
X0065173Y0170843D01*
X0073677Y0179346D01*
X0081630Y0177378D02*
X0112850Y0177378D01*
X0119465Y0183992D01*
X0119465Y0188402D01*
X0129465Y0188402D02*
X0114819Y0173756D01*
X0083835Y0173756D01*
X0083717Y0173638D01*
X0083717Y0148205D01*
X0088717Y0143205D01*
X0094858Y0143205D01*
X0094592Y0142939D01*
X0094592Y0138443D01*
X0097692Y0138443D02*
X0097692Y0146629D01*
X0097811Y0146748D01*
X0110292Y0141198D02*
X0110292Y0138443D01*
X0110292Y0141198D02*
X0113835Y0144740D01*
X0152575Y0144740D01*
X0159504Y0151669D01*
X0180764Y0151669D02*
X0190488Y0151669D01*
X0190921Y0151236D01*
X0185724Y0133008D02*
X0184346Y0131630D01*
X0184346Y0121472D01*
X0173323Y0121472D02*
X0154189Y0121472D01*
X0152693Y0122969D01*
X0136157Y0125094D01*
X0132417Y0125055D01*
X0126780Y0125055D01*
X0126592Y0125243D01*
X0127213Y0124622D01*
X0119465Y0158402D02*
X0123441Y0162378D01*
X0055173Y0117614D02*
X0055173Y0108402D01*
X0055173Y0117614D02*
X0055094Y0117693D01*
X0055055Y0117732D01*
X0039386Y0117732D01*
X0048559Y0170528D02*
X0048874Y0170843D01*
X0141039Y0048598D02*
X0146276Y0043362D01*
X0147654Y0043362D01*
D25*
X0157496Y0033992D03*
X0103835Y0088283D03*
X0117457Y0106984D03*
X0118520Y0118244D03*
X0097811Y0146748D03*
X0088598Y0116118D03*
X0055173Y0108402D03*
X0100370Y0053165D03*
X0185724Y0133008D03*
X0190921Y0151236D03*
X0187378Y0090331D03*
M02*
