G75*
%MOIN*%
%OFA0B0*%
%FSLAX25Y25*%
%IPPOS*%
%LPD*%
%AMOC8*
5,1,8,0,0,1.08239X$1,22.5*
%
%ADD10C,0.06000*%
%ADD11C,0.06800*%
%ADD12C,0.27800*%
%ADD13C,0.05200*%
%ADD14C,0.08477*%
%ADD15OC8,0.08674*%
%ADD16C,0.04762*%
D10*
X0069465Y0155802D02*
X0069465Y0161002D01*
X0079465Y0161002D02*
X0079465Y0155802D01*
X0089465Y0155802D02*
X0089465Y0161002D01*
X0099465Y0161002D02*
X0099465Y0155802D01*
X0109465Y0155802D02*
X0109465Y0161002D01*
X0119465Y0161002D02*
X0119465Y0155802D01*
X0129465Y0155802D02*
X0129465Y0161002D01*
X0139465Y0161002D02*
X0139465Y0155802D01*
X0139465Y0185802D02*
X0139465Y0191002D01*
X0129465Y0191002D02*
X0129465Y0185802D01*
X0119465Y0185802D02*
X0119465Y0191002D01*
X0109465Y0191002D02*
X0109465Y0185802D01*
X0099465Y0185802D02*
X0099465Y0191002D01*
X0089465Y0191002D02*
X0089465Y0185802D01*
X0079465Y0185802D02*
X0079465Y0191002D01*
X0069465Y0191002D02*
X0069465Y0185802D01*
D11*
X0051559Y0180528D02*
X0045559Y0180528D01*
X0045559Y0170528D02*
X0051559Y0170528D01*
X0065134Y0142976D02*
X0065134Y0136976D01*
X0075134Y0136976D02*
X0075134Y0142976D01*
X0037307Y0090921D02*
X0031307Y0090921D01*
X0031307Y0080921D02*
X0037307Y0080921D01*
X0037307Y0070921D02*
X0031307Y0070921D01*
X0031307Y0060921D02*
X0037307Y0060921D01*
X0037307Y0050921D02*
X0031307Y0050921D01*
X0031307Y0040921D02*
X0037307Y0040921D01*
X0087732Y0041244D02*
X0087732Y0035244D01*
X0097732Y0035244D02*
X0097732Y0041244D01*
X0107732Y0041244D02*
X0107732Y0035244D01*
X0117732Y0035244D02*
X0117732Y0041244D01*
X0127732Y0041244D02*
X0127732Y0035244D01*
X0137732Y0035244D02*
X0137732Y0041244D01*
X0151898Y0170921D02*
X0157898Y0170921D01*
X0157898Y0180921D02*
X0151898Y0180921D01*
D12*
X0016748Y0016748D03*
X0016748Y0182102D03*
X0182102Y0182102D03*
X0182102Y0016748D03*
D13*
X0154893Y0102969D02*
X0150493Y0102969D01*
X0150493Y0122969D02*
X0154893Y0122969D01*
D14*
X0043224Y0117732D02*
X0035547Y0117732D01*
X0017634Y0117732D02*
X0009957Y0117732D01*
D15*
X0016079Y0146394D03*
X0035764Y0146394D03*
X0181787Y0071079D03*
X0181787Y0051394D03*
D16*
X0157496Y0033992D03*
X0103835Y0088283D03*
X0117457Y0106984D03*
X0118520Y0118244D03*
X0097811Y0146748D03*
X0088598Y0116118D03*
X0055173Y0108402D03*
X0100370Y0053165D03*
X0185724Y0133008D03*
X0190921Y0151236D03*
X0187378Y0090331D03*
M02*
