G75*
%MOIN*%
%OFA0B0*%
%FSLAX25Y25*%
%IPPOS*%
%LPD*%
%AMOC8*
5,1,8,0,0,1.08239X$1,22.5*
%
%ADD10C,0.00000*%
%ADD11C,0.00400*%
%ADD12C,0.00800*%
%ADD13C,0.00600*%
%ADD14C,0.00500*%
%ADD15R,0.01673X0.01280*%
%ADD16R,0.01378X0.01378*%
%ADD17C,0.00300*%
%ADD18C,0.00200*%
D10*
X0001000Y0001000D02*
X0001000Y0197850D01*
X0197850Y0197850D01*
X0197850Y0001000D01*
X0001000Y0001000D01*
D11*
X0085684Y0060491D02*
X0085684Y0062793D01*
X0086452Y0063561D01*
X0087986Y0063561D01*
X0088754Y0062793D01*
X0088754Y0060491D01*
X0090288Y0060491D02*
X0085684Y0060491D01*
X0088754Y0062026D02*
X0090288Y0063561D01*
X0090288Y0065095D02*
X0087219Y0068165D01*
X0086452Y0068165D01*
X0085684Y0067397D01*
X0085684Y0065863D01*
X0086452Y0065095D01*
X0090288Y0065095D02*
X0090288Y0068165D01*
X0101905Y0066964D02*
X0101905Y0065430D01*
X0102672Y0064662D01*
X0102672Y0063128D02*
X0104207Y0063128D01*
X0104974Y0062360D01*
X0104974Y0060058D01*
X0106509Y0060058D02*
X0101905Y0060058D01*
X0101905Y0062360D01*
X0102672Y0063128D01*
X0104974Y0061593D02*
X0106509Y0063128D01*
X0105741Y0064662D02*
X0106509Y0065430D01*
X0106509Y0066964D01*
X0105741Y0067731D01*
X0104974Y0067731D01*
X0104207Y0066964D01*
X0104207Y0066197D01*
X0104207Y0066964D02*
X0103439Y0067731D01*
X0102672Y0067731D01*
X0101905Y0066964D01*
X0115133Y0067004D02*
X0117435Y0064702D01*
X0117435Y0067771D01*
X0119737Y0067004D02*
X0115133Y0067004D01*
X0115900Y0063167D02*
X0117435Y0063167D01*
X0118202Y0062400D01*
X0118202Y0060098D01*
X0118202Y0061632D02*
X0119737Y0063167D01*
X0119737Y0060098D02*
X0115133Y0060098D01*
X0115133Y0062400D01*
X0115900Y0063167D01*
X0128401Y0062242D02*
X0128401Y0059940D01*
X0133005Y0059940D01*
X0131470Y0059940D02*
X0131470Y0062242D01*
X0130703Y0063009D01*
X0129168Y0063009D01*
X0128401Y0062242D01*
X0128401Y0064544D02*
X0130703Y0064544D01*
X0129935Y0066079D01*
X0129935Y0066846D01*
X0130703Y0067613D01*
X0132237Y0067613D01*
X0133005Y0066846D01*
X0133005Y0065311D01*
X0132237Y0064544D01*
X0133005Y0063009D02*
X0131470Y0061475D01*
X0128401Y0064544D02*
X0128401Y0067613D01*
X0149586Y0066906D02*
X0149586Y0062302D01*
X0152655Y0062302D01*
X0154190Y0062302D02*
X0157259Y0062302D01*
X0158794Y0062302D02*
X0161096Y0062302D01*
X0161863Y0063070D01*
X0161863Y0066139D01*
X0161096Y0066906D01*
X0158794Y0066906D01*
X0158794Y0062302D01*
X0155724Y0064604D02*
X0154190Y0064604D01*
X0154190Y0066906D02*
X0154190Y0062302D01*
X0154190Y0066906D02*
X0157259Y0066906D01*
X0163398Y0066139D02*
X0164165Y0066906D01*
X0165700Y0066906D01*
X0166467Y0066139D01*
X0166467Y0065372D01*
X0163398Y0062302D01*
X0166467Y0062302D01*
X0165090Y0053166D02*
X0165090Y0048562D01*
X0166624Y0048562D02*
X0163555Y0048562D01*
X0162020Y0049330D02*
X0162020Y0052399D01*
X0161253Y0053166D01*
X0158951Y0053166D01*
X0158951Y0048562D01*
X0161253Y0048562D01*
X0162020Y0049330D01*
X0163555Y0051631D02*
X0165090Y0053166D01*
X0157417Y0053166D02*
X0154347Y0053166D01*
X0154347Y0048562D01*
X0157417Y0048562D01*
X0155882Y0050864D02*
X0154347Y0050864D01*
X0152813Y0048562D02*
X0149743Y0048562D01*
X0149743Y0053166D01*
X0150098Y0075491D02*
X0153167Y0075491D01*
X0154702Y0075491D02*
X0157771Y0075491D01*
X0159305Y0075491D02*
X0161607Y0075491D01*
X0162375Y0076259D01*
X0162375Y0079328D01*
X0161607Y0080095D01*
X0159305Y0080095D01*
X0159305Y0075491D01*
X0156236Y0077793D02*
X0154702Y0077793D01*
X0154702Y0080095D02*
X0154702Y0075491D01*
X0154702Y0080095D02*
X0157771Y0080095D01*
X0163909Y0079328D02*
X0164677Y0080095D01*
X0166211Y0080095D01*
X0166979Y0079328D01*
X0166979Y0078561D01*
X0166211Y0077793D01*
X0166979Y0077026D01*
X0166979Y0076259D01*
X0166211Y0075491D01*
X0164677Y0075491D01*
X0163909Y0076259D01*
X0165444Y0077793D02*
X0166211Y0077793D01*
X0176381Y0090609D02*
X0177916Y0090609D01*
X0178683Y0091377D01*
X0180218Y0090609D02*
X0183287Y0090609D01*
X0181753Y0090609D02*
X0181753Y0095213D01*
X0180218Y0093679D01*
X0178683Y0094446D02*
X0177916Y0095213D01*
X0176381Y0095213D01*
X0175614Y0094446D01*
X0175614Y0091377D01*
X0176381Y0090609D01*
X0177129Y0111672D02*
X0175594Y0111672D01*
X0174827Y0112440D01*
X0174827Y0115509D01*
X0175594Y0116276D01*
X0177129Y0116276D01*
X0177896Y0115509D01*
X0179431Y0115509D02*
X0180198Y0116276D01*
X0181733Y0116276D01*
X0182500Y0115509D01*
X0182500Y0114742D01*
X0181733Y0113974D01*
X0182500Y0113207D01*
X0182500Y0112440D01*
X0181733Y0111672D01*
X0180198Y0111672D01*
X0179431Y0112440D01*
X0177896Y0112440D02*
X0177129Y0111672D01*
X0180965Y0113974D02*
X0181733Y0113974D01*
X0182146Y0132578D02*
X0179076Y0132578D01*
X0182146Y0135647D01*
X0182146Y0136415D01*
X0181378Y0137182D01*
X0179844Y0137182D01*
X0179076Y0136415D01*
X0177542Y0136415D02*
X0176774Y0137182D01*
X0175240Y0137182D01*
X0174472Y0136415D01*
X0174472Y0133345D01*
X0175240Y0132578D01*
X0176774Y0132578D01*
X0177542Y0133345D01*
X0150098Y0080095D02*
X0150098Y0075491D01*
X0063480Y0122893D02*
X0060410Y0122893D01*
X0058876Y0122893D02*
X0057341Y0124428D01*
X0058108Y0124428D02*
X0055806Y0124428D01*
X0055806Y0122893D02*
X0055806Y0127497D01*
X0058108Y0127497D01*
X0058876Y0126730D01*
X0058876Y0125195D01*
X0058108Y0124428D01*
X0060410Y0125962D02*
X0061945Y0127497D01*
X0061945Y0122893D01*
X0024464Y0127932D02*
X0021394Y0127932D01*
X0022929Y0127932D02*
X0022929Y0132536D01*
X0021394Y0131002D01*
X0019860Y0131769D02*
X0019093Y0132536D01*
X0017558Y0132536D01*
X0016791Y0131769D01*
X0016791Y0131002D01*
X0017558Y0130234D01*
X0019093Y0130234D01*
X0019860Y0129467D01*
X0019860Y0128700D01*
X0019093Y0127932D01*
X0017558Y0127932D01*
X0016791Y0128700D01*
D12*
X0014780Y0124622D02*
X0038402Y0124622D01*
X0038402Y0123638D01*
X0030528Y0120685D02*
X0022654Y0120685D01*
X0022654Y0114780D02*
X0030528Y0114780D01*
X0038402Y0111827D02*
X0038402Y0110843D01*
X0014780Y0110843D01*
X0014780Y0111827D01*
X0014780Y0123638D02*
X0014780Y0124622D01*
X0085592Y0145977D02*
X0086827Y0144743D01*
X0089295Y0144743D01*
X0090530Y0145977D01*
X0090530Y0152149D01*
X0093143Y0150914D02*
X0094377Y0152149D01*
X0096846Y0152149D01*
X0098080Y0150914D01*
X0096846Y0148446D02*
X0094377Y0148446D01*
X0093143Y0149680D01*
X0093143Y0150914D01*
X0095611Y0153383D02*
X0095611Y0143508D01*
X0094377Y0144743D02*
X0096846Y0144743D01*
X0098080Y0145977D01*
X0098080Y0147211D01*
X0096846Y0148446D01*
X0100693Y0149680D02*
X0103162Y0152149D01*
X0103162Y0144743D01*
X0100693Y0144743D02*
X0105631Y0144743D01*
X0094377Y0144743D02*
X0093143Y0145977D01*
X0085592Y0145977D02*
X0085592Y0152149D01*
X0157142Y0156000D02*
X0157142Y0161118D01*
X0160685Y0164661D01*
X0183126Y0164661D01*
X0183126Y0156000D01*
X0183126Y0147339D02*
X0183126Y0138677D01*
X0160685Y0138677D01*
X0157142Y0142220D01*
X0157142Y0147339D01*
X0158520Y0155409D02*
X0158614Y0155690D01*
X0158716Y0155969D01*
X0158824Y0156245D01*
X0158939Y0156518D01*
X0159060Y0156789D01*
X0159188Y0157056D01*
X0159323Y0157321D01*
X0159464Y0157582D01*
X0159611Y0157839D01*
X0159764Y0158093D01*
X0159924Y0158343D01*
X0160089Y0158589D01*
X0160261Y0158831D01*
X0160438Y0159068D01*
X0160621Y0159302D01*
X0160810Y0159530D01*
X0161005Y0159755D01*
X0161204Y0159974D01*
X0161409Y0160188D01*
X0161619Y0160397D01*
X0161834Y0160601D01*
X0162055Y0160800D01*
X0162279Y0160994D01*
X0162509Y0161181D01*
X0162743Y0161364D01*
X0162981Y0161540D01*
X0163224Y0161711D01*
X0163470Y0161875D01*
X0163721Y0162034D01*
X0163975Y0162186D01*
X0164234Y0162332D01*
X0164495Y0162472D01*
X0164760Y0162606D01*
X0165028Y0162733D01*
X0165299Y0162853D01*
X0165573Y0162967D01*
X0165849Y0163074D01*
X0166129Y0163174D01*
X0166410Y0163267D01*
X0166694Y0163354D01*
X0166979Y0163433D01*
X0167267Y0163506D01*
X0167556Y0163572D01*
X0167847Y0163630D01*
X0168139Y0163681D01*
X0168432Y0163726D01*
X0168726Y0163763D01*
X0169021Y0163793D01*
X0169317Y0163816D01*
X0169613Y0163831D01*
X0169910Y0163839D01*
X0170206Y0163841D01*
X0170503Y0163834D01*
X0170799Y0163821D01*
X0171095Y0163801D01*
X0171390Y0163773D01*
X0171684Y0163738D01*
X0171978Y0163696D01*
X0172270Y0163646D01*
X0172562Y0163590D01*
X0172851Y0163527D01*
X0173139Y0163456D01*
X0173426Y0163379D01*
X0173710Y0163294D01*
X0173992Y0163203D01*
X0174272Y0163105D01*
X0174549Y0163000D01*
X0174824Y0162888D01*
X0175096Y0162770D01*
X0175365Y0162645D01*
X0175631Y0162513D01*
X0175893Y0162376D01*
X0176152Y0162231D01*
X0176408Y0162081D01*
X0176660Y0161924D01*
X0176908Y0161761D01*
X0177151Y0161593D01*
X0177391Y0161418D01*
X0177626Y0161237D01*
X0177857Y0161051D01*
X0178084Y0160860D01*
X0178305Y0160663D01*
X0178522Y0160460D01*
X0178733Y0160252D01*
X0178940Y0160040D01*
X0179141Y0159822D01*
X0179337Y0159599D01*
X0179528Y0159372D01*
X0179713Y0159140D01*
X0179892Y0158904D01*
X0180065Y0158663D01*
X0180232Y0158418D01*
X0180394Y0158169D01*
X0180549Y0157917D01*
X0180698Y0157660D01*
X0180841Y0157401D01*
X0180978Y0157137D01*
X0181108Y0156871D01*
X0181231Y0156601D01*
X0181348Y0156329D01*
X0181458Y0156053D01*
X0181561Y0155775D01*
X0181658Y0155495D01*
X0181748Y0155212D01*
X0181748Y0147929D02*
X0181654Y0147648D01*
X0181552Y0147369D01*
X0181444Y0147093D01*
X0181329Y0146820D01*
X0181208Y0146549D01*
X0181080Y0146282D01*
X0180945Y0146017D01*
X0180804Y0145756D01*
X0180657Y0145499D01*
X0180504Y0145245D01*
X0180344Y0144995D01*
X0180179Y0144749D01*
X0180007Y0144507D01*
X0179830Y0144270D01*
X0179647Y0144036D01*
X0179458Y0143808D01*
X0179263Y0143583D01*
X0179064Y0143364D01*
X0178859Y0143150D01*
X0178649Y0142941D01*
X0178434Y0142737D01*
X0178213Y0142538D01*
X0177989Y0142344D01*
X0177759Y0142157D01*
X0177525Y0141974D01*
X0177287Y0141798D01*
X0177044Y0141627D01*
X0176798Y0141463D01*
X0176547Y0141304D01*
X0176293Y0141152D01*
X0176034Y0141006D01*
X0175773Y0140866D01*
X0175508Y0140732D01*
X0175240Y0140605D01*
X0174969Y0140485D01*
X0174695Y0140371D01*
X0174419Y0140264D01*
X0174139Y0140164D01*
X0173858Y0140071D01*
X0173574Y0139984D01*
X0173289Y0139905D01*
X0173001Y0139832D01*
X0172712Y0139766D01*
X0172421Y0139708D01*
X0172129Y0139657D01*
X0171836Y0139612D01*
X0171542Y0139575D01*
X0171247Y0139545D01*
X0170951Y0139522D01*
X0170655Y0139507D01*
X0170358Y0139499D01*
X0170062Y0139497D01*
X0169765Y0139504D01*
X0169469Y0139517D01*
X0169173Y0139537D01*
X0168878Y0139565D01*
X0168584Y0139600D01*
X0168290Y0139642D01*
X0167998Y0139692D01*
X0167706Y0139748D01*
X0167417Y0139811D01*
X0167129Y0139882D01*
X0166842Y0139959D01*
X0166558Y0140044D01*
X0166276Y0140135D01*
X0165996Y0140233D01*
X0165719Y0140338D01*
X0165444Y0140450D01*
X0165172Y0140568D01*
X0164903Y0140693D01*
X0164637Y0140825D01*
X0164375Y0140962D01*
X0164116Y0141107D01*
X0163860Y0141257D01*
X0163608Y0141414D01*
X0163360Y0141577D01*
X0163117Y0141745D01*
X0162877Y0141920D01*
X0162642Y0142101D01*
X0162411Y0142287D01*
X0162184Y0142478D01*
X0161963Y0142675D01*
X0161746Y0142878D01*
X0161535Y0143086D01*
X0161328Y0143298D01*
X0161127Y0143516D01*
X0160931Y0143739D01*
X0160740Y0143966D01*
X0160555Y0144198D01*
X0160376Y0144434D01*
X0160203Y0144675D01*
X0160036Y0144920D01*
X0159874Y0145169D01*
X0159719Y0145421D01*
X0159570Y0145678D01*
X0159427Y0145937D01*
X0159290Y0146201D01*
X0159160Y0146467D01*
X0159037Y0146737D01*
X0158920Y0147009D01*
X0158810Y0147285D01*
X0158707Y0147563D01*
X0158610Y0147843D01*
X0158520Y0148126D01*
D13*
X0144465Y0161902D02*
X0144465Y0184902D01*
X0064465Y0184902D01*
X0064465Y0177402D01*
X0064591Y0177400D01*
X0064716Y0177394D01*
X0064841Y0177384D01*
X0064966Y0177370D01*
X0065091Y0177353D01*
X0065215Y0177331D01*
X0065338Y0177306D01*
X0065460Y0177276D01*
X0065581Y0177243D01*
X0065701Y0177206D01*
X0065820Y0177166D01*
X0065937Y0177121D01*
X0066054Y0177073D01*
X0066168Y0177021D01*
X0066281Y0176966D01*
X0066392Y0176907D01*
X0066501Y0176845D01*
X0066608Y0176779D01*
X0066713Y0176710D01*
X0066816Y0176638D01*
X0066917Y0176563D01*
X0067015Y0176484D01*
X0067110Y0176402D01*
X0067203Y0176318D01*
X0067293Y0176230D01*
X0067381Y0176140D01*
X0067465Y0176047D01*
X0067547Y0175952D01*
X0067626Y0175854D01*
X0067701Y0175753D01*
X0067773Y0175650D01*
X0067842Y0175545D01*
X0067908Y0175438D01*
X0067970Y0175329D01*
X0068029Y0175218D01*
X0068084Y0175105D01*
X0068136Y0174991D01*
X0068184Y0174874D01*
X0068229Y0174757D01*
X0068269Y0174638D01*
X0068306Y0174518D01*
X0068339Y0174397D01*
X0068369Y0174275D01*
X0068394Y0174152D01*
X0068416Y0174028D01*
X0068433Y0173903D01*
X0068447Y0173778D01*
X0068457Y0173653D01*
X0068463Y0173528D01*
X0068465Y0173402D01*
X0068463Y0173276D01*
X0068457Y0173151D01*
X0068447Y0173026D01*
X0068433Y0172901D01*
X0068416Y0172776D01*
X0068394Y0172652D01*
X0068369Y0172529D01*
X0068339Y0172407D01*
X0068306Y0172286D01*
X0068269Y0172166D01*
X0068229Y0172047D01*
X0068184Y0171930D01*
X0068136Y0171813D01*
X0068084Y0171699D01*
X0068029Y0171586D01*
X0067970Y0171475D01*
X0067908Y0171366D01*
X0067842Y0171259D01*
X0067773Y0171154D01*
X0067701Y0171051D01*
X0067626Y0170950D01*
X0067547Y0170852D01*
X0067465Y0170757D01*
X0067381Y0170664D01*
X0067293Y0170574D01*
X0067203Y0170486D01*
X0067110Y0170402D01*
X0067015Y0170320D01*
X0066917Y0170241D01*
X0066816Y0170166D01*
X0066713Y0170094D01*
X0066608Y0170025D01*
X0066501Y0169959D01*
X0066392Y0169897D01*
X0066281Y0169838D01*
X0066168Y0169783D01*
X0066054Y0169731D01*
X0065937Y0169683D01*
X0065820Y0169638D01*
X0065701Y0169598D01*
X0065581Y0169561D01*
X0065460Y0169528D01*
X0065338Y0169498D01*
X0065215Y0169473D01*
X0065091Y0169451D01*
X0064966Y0169434D01*
X0064841Y0169420D01*
X0064716Y0169410D01*
X0064591Y0169404D01*
X0064465Y0169402D01*
X0064465Y0161902D01*
X0144465Y0161902D01*
X0149898Y0168421D02*
X0152398Y0165921D01*
X0157398Y0165921D01*
X0159898Y0168421D01*
X0159898Y0173421D01*
X0157398Y0175921D01*
X0159898Y0178421D01*
X0159898Y0183421D01*
X0157398Y0185921D01*
X0152398Y0185921D01*
X0149898Y0183421D01*
X0149898Y0178421D01*
X0152398Y0175921D01*
X0157398Y0175921D01*
X0152398Y0175921D02*
X0149898Y0173421D01*
X0149898Y0168421D01*
X0123892Y0135743D02*
X0121992Y0135743D01*
X0123892Y0135743D02*
X0123892Y0133843D01*
X0130492Y0122843D02*
X0130492Y0121343D01*
X0131492Y0121343D01*
X0131492Y0122843D01*
X0143693Y0126469D02*
X0143693Y0099469D01*
X0143696Y0099250D01*
X0143704Y0099031D01*
X0143717Y0098812D01*
X0143736Y0098594D01*
X0143760Y0098376D01*
X0143789Y0098159D01*
X0143823Y0097942D01*
X0143863Y0097727D01*
X0143908Y0097512D01*
X0143959Y0097299D01*
X0144014Y0097087D01*
X0144075Y0096876D01*
X0144140Y0096667D01*
X0144211Y0096460D01*
X0144287Y0096254D01*
X0144368Y0096050D01*
X0144453Y0095848D01*
X0144544Y0095649D01*
X0144639Y0095452D01*
X0144740Y0095257D01*
X0144845Y0095064D01*
X0144954Y0094874D01*
X0145068Y0094687D01*
X0145187Y0094503D01*
X0145310Y0094322D01*
X0145438Y0094144D01*
X0145570Y0093968D01*
X0145706Y0093797D01*
X0145846Y0093628D01*
X0145990Y0093463D01*
X0146138Y0093302D01*
X0146290Y0093144D01*
X0146446Y0092990D01*
X0146606Y0092840D01*
X0146769Y0092693D01*
X0146936Y0092551D01*
X0147106Y0092413D01*
X0147280Y0092279D01*
X0147456Y0092149D01*
X0147636Y0092024D01*
X0147819Y0091903D01*
X0148005Y0091787D01*
X0148193Y0091675D01*
X0148384Y0091568D01*
X0148578Y0091465D01*
X0148774Y0091367D01*
X0148972Y0091274D01*
X0149173Y0091186D01*
X0149376Y0091103D01*
X0149581Y0091024D01*
X0149787Y0090951D01*
X0149995Y0090883D01*
X0150205Y0090820D01*
X0150417Y0090762D01*
X0150629Y0090709D01*
X0150843Y0090661D01*
X0151058Y0090619D01*
X0151274Y0090582D01*
X0151491Y0090550D01*
X0151709Y0090523D01*
X0151927Y0090502D01*
X0152145Y0090486D01*
X0152364Y0090475D01*
X0152583Y0090470D01*
X0152803Y0090470D01*
X0153022Y0090475D01*
X0153241Y0090486D01*
X0153459Y0090502D01*
X0153677Y0090523D01*
X0153895Y0090550D01*
X0154112Y0090582D01*
X0154328Y0090619D01*
X0154543Y0090661D01*
X0154757Y0090709D01*
X0154969Y0090762D01*
X0155181Y0090820D01*
X0155391Y0090883D01*
X0155599Y0090951D01*
X0155805Y0091024D01*
X0156010Y0091103D01*
X0156213Y0091186D01*
X0156414Y0091274D01*
X0156612Y0091367D01*
X0156808Y0091465D01*
X0157002Y0091568D01*
X0157193Y0091675D01*
X0157381Y0091787D01*
X0157567Y0091903D01*
X0157750Y0092024D01*
X0157930Y0092149D01*
X0158106Y0092279D01*
X0158280Y0092413D01*
X0158450Y0092551D01*
X0158617Y0092693D01*
X0158780Y0092840D01*
X0158940Y0092990D01*
X0159096Y0093144D01*
X0159248Y0093302D01*
X0159396Y0093463D01*
X0159540Y0093628D01*
X0159680Y0093797D01*
X0159816Y0093968D01*
X0159948Y0094144D01*
X0160076Y0094322D01*
X0160199Y0094503D01*
X0160318Y0094687D01*
X0160432Y0094874D01*
X0160541Y0095064D01*
X0160646Y0095257D01*
X0160747Y0095452D01*
X0160842Y0095649D01*
X0160933Y0095848D01*
X0161018Y0096050D01*
X0161099Y0096254D01*
X0161175Y0096460D01*
X0161246Y0096667D01*
X0161311Y0096876D01*
X0161372Y0097087D01*
X0161427Y0097299D01*
X0161478Y0097512D01*
X0161523Y0097727D01*
X0161563Y0097942D01*
X0161597Y0098159D01*
X0161626Y0098376D01*
X0161650Y0098594D01*
X0161669Y0098812D01*
X0161682Y0099031D01*
X0161690Y0099250D01*
X0161693Y0099469D01*
X0161693Y0126469D01*
X0161690Y0126688D01*
X0161682Y0126907D01*
X0161669Y0127126D01*
X0161650Y0127344D01*
X0161626Y0127562D01*
X0161597Y0127779D01*
X0161563Y0127996D01*
X0161523Y0128211D01*
X0161478Y0128426D01*
X0161427Y0128639D01*
X0161372Y0128851D01*
X0161311Y0129062D01*
X0161246Y0129271D01*
X0161175Y0129478D01*
X0161099Y0129684D01*
X0161018Y0129888D01*
X0160933Y0130090D01*
X0160842Y0130289D01*
X0160747Y0130486D01*
X0160646Y0130681D01*
X0160541Y0130874D01*
X0160432Y0131064D01*
X0160318Y0131251D01*
X0160199Y0131435D01*
X0160076Y0131616D01*
X0159948Y0131794D01*
X0159816Y0131970D01*
X0159680Y0132141D01*
X0159540Y0132310D01*
X0159396Y0132475D01*
X0159248Y0132636D01*
X0159096Y0132794D01*
X0158940Y0132948D01*
X0158780Y0133098D01*
X0158617Y0133245D01*
X0158450Y0133387D01*
X0158280Y0133525D01*
X0158106Y0133659D01*
X0157930Y0133789D01*
X0157750Y0133914D01*
X0157567Y0134035D01*
X0157381Y0134151D01*
X0157193Y0134263D01*
X0157002Y0134370D01*
X0156808Y0134473D01*
X0156612Y0134571D01*
X0156414Y0134664D01*
X0156213Y0134752D01*
X0156010Y0134835D01*
X0155805Y0134914D01*
X0155599Y0134987D01*
X0155391Y0135055D01*
X0155181Y0135118D01*
X0154969Y0135176D01*
X0154757Y0135229D01*
X0154543Y0135277D01*
X0154328Y0135319D01*
X0154112Y0135356D01*
X0153895Y0135388D01*
X0153677Y0135415D01*
X0153459Y0135436D01*
X0153241Y0135452D01*
X0153022Y0135463D01*
X0152803Y0135468D01*
X0152583Y0135468D01*
X0152364Y0135463D01*
X0152145Y0135452D01*
X0151927Y0135436D01*
X0151709Y0135415D01*
X0151491Y0135388D01*
X0151274Y0135356D01*
X0151058Y0135319D01*
X0150843Y0135277D01*
X0150629Y0135229D01*
X0150417Y0135176D01*
X0150205Y0135118D01*
X0149995Y0135055D01*
X0149787Y0134987D01*
X0149581Y0134914D01*
X0149376Y0134835D01*
X0149173Y0134752D01*
X0148972Y0134664D01*
X0148774Y0134571D01*
X0148578Y0134473D01*
X0148384Y0134370D01*
X0148193Y0134263D01*
X0148005Y0134151D01*
X0147819Y0134035D01*
X0147636Y0133914D01*
X0147456Y0133789D01*
X0147280Y0133659D01*
X0147106Y0133525D01*
X0146936Y0133387D01*
X0146769Y0133245D01*
X0146606Y0133098D01*
X0146446Y0132948D01*
X0146290Y0132794D01*
X0146138Y0132636D01*
X0145990Y0132475D01*
X0145846Y0132310D01*
X0145706Y0132141D01*
X0145570Y0131970D01*
X0145438Y0131794D01*
X0145310Y0131616D01*
X0145187Y0131435D01*
X0145068Y0131251D01*
X0144954Y0131064D01*
X0144845Y0130874D01*
X0144740Y0130681D01*
X0144639Y0130486D01*
X0144544Y0130289D01*
X0144453Y0130090D01*
X0144368Y0129888D01*
X0144287Y0129684D01*
X0144211Y0129478D01*
X0144140Y0129271D01*
X0144075Y0129062D01*
X0144014Y0128851D01*
X0143959Y0128639D01*
X0143908Y0128426D01*
X0143863Y0128211D01*
X0143823Y0127996D01*
X0143789Y0127779D01*
X0143760Y0127562D01*
X0143736Y0127344D01*
X0143717Y0127126D01*
X0143704Y0126907D01*
X0143696Y0126688D01*
X0143693Y0126469D01*
X0123892Y0097843D02*
X0123892Y0095943D01*
X0121992Y0095943D01*
X0114192Y0089343D02*
X0114192Y0088343D01*
X0112692Y0088343D01*
X0112692Y0089343D01*
X0085992Y0095943D02*
X0084092Y0095943D01*
X0084092Y0097843D01*
X0077492Y0102543D02*
X0077492Y0104043D01*
X0076492Y0104043D02*
X0076492Y0102543D01*
X0077492Y0102543D01*
X0085492Y0132143D02*
X0087692Y0134343D01*
X0085992Y0135743D02*
X0084092Y0135743D01*
X0084092Y0133843D01*
X0080134Y0137476D02*
X0077634Y0134976D01*
X0072634Y0134976D01*
X0070134Y0137476D01*
X0067634Y0134976D01*
X0062634Y0134976D01*
X0060134Y0137476D01*
X0060134Y0142476D01*
X0062634Y0144976D01*
X0067634Y0144976D01*
X0070134Y0142476D01*
X0072634Y0144976D01*
X0077634Y0144976D01*
X0080134Y0142476D01*
X0080134Y0137476D01*
X0070134Y0137476D02*
X0070134Y0142476D01*
X0051059Y0165528D02*
X0053559Y0168028D01*
X0053559Y0173028D01*
X0051059Y0175528D01*
X0053559Y0178028D01*
X0053559Y0183028D01*
X0051059Y0185528D01*
X0046059Y0185528D01*
X0043559Y0183028D01*
X0043559Y0178028D01*
X0046059Y0175528D01*
X0051059Y0175528D01*
X0046059Y0175528D02*
X0043559Y0173028D01*
X0043559Y0168028D01*
X0046059Y0165528D01*
X0051059Y0165528D01*
X0100092Y0143343D02*
X0101592Y0143343D01*
X0101592Y0142343D01*
X0100092Y0142343D02*
X0100092Y0143343D01*
X0039307Y0093421D02*
X0039307Y0088421D01*
X0036807Y0085921D01*
X0039307Y0083421D01*
X0039307Y0078421D01*
X0036807Y0075921D01*
X0039307Y0073421D01*
X0039307Y0068421D01*
X0036807Y0065921D01*
X0039307Y0063421D01*
X0039307Y0058421D01*
X0036807Y0055921D01*
X0039307Y0053421D01*
X0039307Y0048421D01*
X0036807Y0045921D01*
X0039307Y0043421D01*
X0039307Y0038421D01*
X0036807Y0035921D01*
X0031807Y0035921D01*
X0029307Y0038421D01*
X0029307Y0043421D01*
X0031807Y0045921D01*
X0029307Y0048421D01*
X0029307Y0053421D01*
X0031807Y0055921D01*
X0036807Y0055921D01*
X0031807Y0055921D02*
X0029307Y0058421D01*
X0029307Y0063421D01*
X0031807Y0065921D01*
X0029307Y0068421D01*
X0029307Y0073421D01*
X0031807Y0075921D01*
X0029307Y0078421D01*
X0029307Y0083421D01*
X0031807Y0085921D01*
X0029307Y0088421D01*
X0029307Y0093421D01*
X0031807Y0095921D01*
X0036807Y0095921D01*
X0039307Y0093421D01*
X0036807Y0085921D02*
X0031807Y0085921D01*
X0031807Y0075921D02*
X0036807Y0075921D01*
X0036807Y0065921D02*
X0031807Y0065921D01*
X0031807Y0045921D02*
X0036807Y0045921D01*
X0082732Y0040744D02*
X0082732Y0035744D01*
X0085232Y0033244D01*
X0090232Y0033244D01*
X0092732Y0035744D01*
X0095232Y0033244D01*
X0100232Y0033244D01*
X0102732Y0035744D01*
X0102732Y0040744D01*
X0100232Y0043244D01*
X0095232Y0043244D01*
X0092732Y0040744D01*
X0092732Y0035744D01*
X0092732Y0040744D02*
X0090232Y0043244D01*
X0085232Y0043244D01*
X0082732Y0040744D01*
X0102732Y0040744D02*
X0105232Y0043244D01*
X0110232Y0043244D01*
X0112732Y0040744D01*
X0115232Y0043244D01*
X0120232Y0043244D01*
X0122732Y0040744D01*
X0125232Y0043244D01*
X0130232Y0043244D01*
X0132732Y0040744D01*
X0135232Y0043244D01*
X0140232Y0043244D01*
X0142732Y0040744D01*
X0142732Y0035744D01*
X0140232Y0033244D01*
X0135232Y0033244D01*
X0132732Y0035744D01*
X0130232Y0033244D01*
X0125232Y0033244D01*
X0122732Y0035744D01*
X0120232Y0033244D01*
X0115232Y0033244D01*
X0112732Y0035744D01*
X0110232Y0033244D01*
X0105232Y0033244D01*
X0102732Y0035744D01*
X0112732Y0035744D02*
X0112732Y0040744D01*
X0122732Y0040744D02*
X0122732Y0035744D01*
X0132732Y0035744D02*
X0132732Y0040744D01*
D14*
X0167024Y0041551D02*
X0167024Y0061236D01*
X0196551Y0061236D01*
X0196551Y0041551D01*
X0167024Y0041551D01*
X0167024Y0061236D02*
X0167024Y0080921D01*
X0196551Y0080921D01*
X0196551Y0061236D01*
X0141943Y0093969D02*
X0141192Y0093219D01*
X0138190Y0093219D01*
X0137439Y0093969D01*
X0137439Y0095470D01*
X0138190Y0096221D01*
X0141192Y0096221D01*
X0141943Y0095470D01*
X0141943Y0093969D01*
X0140442Y0094720D02*
X0141943Y0096221D01*
X0141943Y0097822D02*
X0141943Y0100825D01*
X0141943Y0099324D02*
X0137439Y0099324D01*
X0138940Y0097822D01*
X0094893Y0050198D02*
X0091890Y0050198D01*
X0091890Y0047946D01*
X0093391Y0048697D01*
X0094142Y0048697D01*
X0094893Y0047946D01*
X0094893Y0046445D01*
X0094142Y0045694D01*
X0092641Y0045694D01*
X0091890Y0046445D01*
X0090289Y0047946D02*
X0089538Y0047195D01*
X0087286Y0047195D01*
X0087286Y0045694D02*
X0087286Y0050198D01*
X0089538Y0050198D01*
X0090289Y0049447D01*
X0090289Y0047946D01*
X0085685Y0050198D02*
X0084184Y0050198D01*
X0084934Y0050198D02*
X0084934Y0046445D01*
X0084184Y0045694D01*
X0083433Y0045694D01*
X0082682Y0046445D01*
X0026857Y0045079D02*
X0023855Y0048082D01*
X0023104Y0048082D01*
X0022353Y0047331D01*
X0022353Y0045830D01*
X0023104Y0045079D01*
X0023104Y0043478D02*
X0024605Y0043478D01*
X0025356Y0042727D01*
X0025356Y0040475D01*
X0026857Y0040475D02*
X0022353Y0040475D01*
X0022353Y0042727D01*
X0023104Y0043478D01*
X0026857Y0045079D02*
X0026857Y0048082D01*
X0022353Y0038874D02*
X0022353Y0037373D01*
X0022353Y0038123D02*
X0026106Y0038123D01*
X0026857Y0037373D01*
X0026857Y0036622D01*
X0026106Y0035871D01*
X0025921Y0131630D02*
X0006236Y0131630D01*
X0006236Y0161157D01*
X0025921Y0161157D01*
X0025921Y0131630D01*
X0045606Y0131630D01*
X0045606Y0161157D01*
X0025921Y0161157D01*
X0036605Y0166979D02*
X0036605Y0168480D01*
X0036605Y0167729D02*
X0040358Y0167729D01*
X0041109Y0166979D01*
X0041109Y0166228D01*
X0040358Y0165478D01*
X0039608Y0170081D02*
X0039608Y0172333D01*
X0038857Y0173084D01*
X0037356Y0173084D01*
X0036605Y0172333D01*
X0036605Y0170081D01*
X0041109Y0170081D01*
X0038857Y0174685D02*
X0038857Y0177688D01*
X0036605Y0176937D02*
X0038857Y0174685D01*
X0041109Y0176937D02*
X0036605Y0176937D01*
X0058211Y0171326D02*
X0062715Y0171326D01*
X0062715Y0169825D02*
X0062715Y0172827D01*
X0059712Y0169825D02*
X0058211Y0171326D01*
X0058961Y0168223D02*
X0058211Y0167473D01*
X0058211Y0165971D01*
X0058961Y0165221D01*
X0061964Y0165221D01*
X0062715Y0165971D01*
X0062715Y0167473D01*
X0061964Y0168223D01*
X0062715Y0163653D02*
X0062715Y0162152D01*
X0062715Y0162902D02*
X0058211Y0162902D01*
X0058211Y0162152D02*
X0058211Y0163653D01*
X0061585Y0151930D02*
X0063086Y0151930D01*
X0062336Y0151930D02*
X0062336Y0148177D01*
X0061585Y0147426D01*
X0060834Y0147426D01*
X0060084Y0148177D01*
X0064688Y0147426D02*
X0064688Y0151930D01*
X0066940Y0151930D01*
X0067690Y0151180D01*
X0067690Y0149678D01*
X0066940Y0148928D01*
X0064688Y0148928D01*
X0069292Y0150429D02*
X0070793Y0151930D01*
X0070793Y0147426D01*
X0069292Y0147426D02*
X0072294Y0147426D01*
X0142944Y0167373D02*
X0142944Y0168874D01*
X0142944Y0168123D02*
X0146697Y0168123D01*
X0147448Y0167373D01*
X0147448Y0166622D01*
X0146697Y0165871D01*
X0147448Y0170475D02*
X0142944Y0170475D01*
X0142944Y0172727D01*
X0143694Y0173478D01*
X0145196Y0173478D01*
X0145946Y0172727D01*
X0145946Y0170475D01*
X0146697Y0175079D02*
X0147448Y0175830D01*
X0147448Y0177331D01*
X0146697Y0178082D01*
X0145946Y0178082D01*
X0145196Y0177331D01*
X0145196Y0176580D01*
X0145196Y0177331D02*
X0144445Y0178082D01*
X0143694Y0178082D01*
X0142944Y0177331D01*
X0142944Y0175830D01*
X0143694Y0175079D01*
D15*
X0157112Y0072998D03*
X0157112Y0067585D03*
X0156600Y0059809D03*
X0156600Y0054396D03*
X0156758Y0046069D03*
X0156758Y0040656D03*
D16*
X0155232Y0043362D03*
X0155075Y0057102D03*
X0155587Y0070291D03*
D17*
X0177252Y0034801D02*
X0178220Y0033833D01*
X0179187Y0034801D01*
X0179187Y0031898D01*
X0180199Y0031898D02*
X0180199Y0034801D01*
X0182134Y0031898D01*
X0182134Y0034801D01*
X0183145Y0034801D02*
X0185080Y0034801D01*
X0184113Y0034801D02*
X0184113Y0031898D01*
X0186092Y0032382D02*
X0186576Y0031898D01*
X0187543Y0031898D01*
X0188027Y0032382D01*
X0188027Y0032866D01*
X0187543Y0033349D01*
X0187059Y0033349D01*
X0187543Y0033349D02*
X0188027Y0033833D01*
X0188027Y0034317D01*
X0187543Y0034801D01*
X0186576Y0034801D01*
X0186092Y0034317D01*
X0177252Y0034801D02*
X0177252Y0031898D01*
X0076978Y0133077D02*
X0073842Y0136213D01*
X0075410Y0136213D02*
X0075410Y0133077D01*
X0073842Y0133077D02*
X0076978Y0136213D01*
X0076978Y0134645D02*
X0073842Y0134645D01*
X0022673Y0197252D02*
X0020738Y0197252D01*
X0021705Y0197252D02*
X0021705Y0200155D01*
X0020738Y0199187D01*
X0019726Y0200155D02*
X0017791Y0200155D01*
X0018759Y0200155D02*
X0018759Y0197252D01*
X0016780Y0197252D02*
X0016780Y0200155D01*
X0014845Y0200155D02*
X0014845Y0197252D01*
X0013833Y0197252D02*
X0013833Y0200155D01*
X0012866Y0199187D01*
X0011898Y0200155D01*
X0011898Y0197252D01*
X0014845Y0200155D02*
X0016780Y0197252D01*
X0016780Y0034801D02*
X0016780Y0031898D01*
X0014845Y0034801D01*
X0014845Y0031898D01*
X0013833Y0031898D02*
X0013833Y0034801D01*
X0012866Y0033833D01*
X0011898Y0034801D01*
X0011898Y0031898D01*
X0017791Y0034801D02*
X0019726Y0034801D01*
X0018759Y0034801D02*
X0018759Y0031898D01*
X0020738Y0033349D02*
X0022673Y0033349D01*
X0022189Y0031898D02*
X0022189Y0034801D01*
X0020738Y0033349D01*
X0177252Y0197252D02*
X0177252Y0200155D01*
X0178220Y0199187D01*
X0179187Y0200155D01*
X0179187Y0197252D01*
X0180199Y0197252D02*
X0180199Y0200155D01*
X0182134Y0197252D01*
X0182134Y0200155D01*
X0183145Y0200155D02*
X0185080Y0200155D01*
X0184113Y0200155D02*
X0184113Y0197252D01*
X0186092Y0197252D02*
X0188027Y0199187D01*
X0188027Y0199671D01*
X0187543Y0200155D01*
X0186576Y0200155D01*
X0186092Y0199671D01*
X0186092Y0197252D02*
X0188027Y0197252D01*
D18*
X0159693Y0126469D02*
X0159693Y0099469D01*
X0159691Y0099299D01*
X0159685Y0099128D01*
X0159674Y0098958D01*
X0159660Y0098788D01*
X0159641Y0098619D01*
X0159618Y0098450D01*
X0159592Y0098281D01*
X0159561Y0098114D01*
X0159526Y0097947D01*
X0159486Y0097781D01*
X0159443Y0097616D01*
X0159396Y0097452D01*
X0159345Y0097290D01*
X0159290Y0097128D01*
X0159231Y0096968D01*
X0159168Y0096810D01*
X0159102Y0096653D01*
X0159031Y0096498D01*
X0158957Y0096344D01*
X0158879Y0096193D01*
X0158797Y0096043D01*
X0158712Y0095895D01*
X0158623Y0095750D01*
X0158531Y0095607D01*
X0158435Y0095466D01*
X0158336Y0095327D01*
X0158233Y0095191D01*
X0158128Y0095057D01*
X0158019Y0094926D01*
X0157906Y0094798D01*
X0157791Y0094672D01*
X0157673Y0094549D01*
X0157552Y0094430D01*
X0157427Y0094313D01*
X0157300Y0094199D01*
X0157171Y0094088D01*
X0157038Y0093981D01*
X0156903Y0093877D01*
X0156766Y0093776D01*
X0156626Y0093678D01*
X0156484Y0093584D01*
X0156340Y0093494D01*
X0156193Y0093407D01*
X0156044Y0093323D01*
X0155894Y0093244D01*
X0155741Y0093168D01*
X0155587Y0093095D01*
X0155431Y0093027D01*
X0155273Y0092962D01*
X0155114Y0092901D01*
X0154953Y0092844D01*
X0154791Y0092791D01*
X0154628Y0092742D01*
X0154464Y0092697D01*
X0154298Y0092656D01*
X0154132Y0092618D01*
X0153964Y0092585D01*
X0153796Y0092557D01*
X0153628Y0092532D01*
X0153459Y0092511D01*
X0153289Y0092494D01*
X0153119Y0092482D01*
X0152949Y0092474D01*
X0152778Y0092470D01*
X0152608Y0092470D01*
X0152437Y0092474D01*
X0152267Y0092482D01*
X0152097Y0092494D01*
X0151927Y0092511D01*
X0151758Y0092532D01*
X0151590Y0092557D01*
X0151422Y0092585D01*
X0151254Y0092618D01*
X0151088Y0092656D01*
X0150922Y0092697D01*
X0150758Y0092742D01*
X0150595Y0092791D01*
X0150433Y0092844D01*
X0150272Y0092901D01*
X0150113Y0092962D01*
X0149955Y0093027D01*
X0149799Y0093095D01*
X0149645Y0093168D01*
X0149492Y0093244D01*
X0149342Y0093323D01*
X0149193Y0093407D01*
X0149046Y0093494D01*
X0148902Y0093584D01*
X0148760Y0093678D01*
X0148620Y0093776D01*
X0148483Y0093877D01*
X0148348Y0093981D01*
X0148215Y0094088D01*
X0148086Y0094199D01*
X0147959Y0094313D01*
X0147834Y0094430D01*
X0147713Y0094549D01*
X0147595Y0094672D01*
X0147480Y0094798D01*
X0147367Y0094926D01*
X0147258Y0095057D01*
X0147153Y0095191D01*
X0147050Y0095327D01*
X0146951Y0095466D01*
X0146855Y0095607D01*
X0146763Y0095750D01*
X0146674Y0095895D01*
X0146589Y0096043D01*
X0146507Y0096193D01*
X0146429Y0096344D01*
X0146355Y0096498D01*
X0146284Y0096653D01*
X0146218Y0096810D01*
X0146155Y0096968D01*
X0146096Y0097128D01*
X0146041Y0097290D01*
X0145990Y0097452D01*
X0145943Y0097616D01*
X0145900Y0097781D01*
X0145860Y0097947D01*
X0145825Y0098114D01*
X0145794Y0098281D01*
X0145768Y0098450D01*
X0145745Y0098619D01*
X0145726Y0098788D01*
X0145712Y0098958D01*
X0145701Y0099128D01*
X0145695Y0099299D01*
X0145693Y0099469D01*
X0145693Y0126469D01*
X0145695Y0126639D01*
X0145701Y0126810D01*
X0145712Y0126980D01*
X0145726Y0127150D01*
X0145745Y0127319D01*
X0145768Y0127488D01*
X0145794Y0127657D01*
X0145825Y0127824D01*
X0145860Y0127991D01*
X0145900Y0128157D01*
X0145943Y0128322D01*
X0145990Y0128486D01*
X0146041Y0128648D01*
X0146096Y0128810D01*
X0146155Y0128970D01*
X0146218Y0129128D01*
X0146284Y0129285D01*
X0146355Y0129440D01*
X0146429Y0129594D01*
X0146507Y0129745D01*
X0146589Y0129895D01*
X0146674Y0130043D01*
X0146763Y0130188D01*
X0146855Y0130331D01*
X0146951Y0130472D01*
X0147050Y0130611D01*
X0147153Y0130747D01*
X0147258Y0130881D01*
X0147367Y0131012D01*
X0147480Y0131140D01*
X0147595Y0131266D01*
X0147713Y0131389D01*
X0147834Y0131508D01*
X0147959Y0131625D01*
X0148086Y0131739D01*
X0148215Y0131850D01*
X0148348Y0131957D01*
X0148483Y0132061D01*
X0148620Y0132162D01*
X0148760Y0132260D01*
X0148902Y0132354D01*
X0149046Y0132444D01*
X0149193Y0132531D01*
X0149342Y0132615D01*
X0149492Y0132694D01*
X0149645Y0132770D01*
X0149799Y0132843D01*
X0149955Y0132911D01*
X0150113Y0132976D01*
X0150272Y0133037D01*
X0150433Y0133094D01*
X0150595Y0133147D01*
X0150758Y0133196D01*
X0150922Y0133241D01*
X0151088Y0133282D01*
X0151254Y0133320D01*
X0151422Y0133353D01*
X0151590Y0133381D01*
X0151758Y0133406D01*
X0151927Y0133427D01*
X0152097Y0133444D01*
X0152267Y0133456D01*
X0152437Y0133464D01*
X0152608Y0133468D01*
X0152778Y0133468D01*
X0152949Y0133464D01*
X0153119Y0133456D01*
X0153289Y0133444D01*
X0153459Y0133427D01*
X0153628Y0133406D01*
X0153796Y0133381D01*
X0153964Y0133353D01*
X0154132Y0133320D01*
X0154298Y0133282D01*
X0154464Y0133241D01*
X0154628Y0133196D01*
X0154791Y0133147D01*
X0154953Y0133094D01*
X0155114Y0133037D01*
X0155273Y0132976D01*
X0155431Y0132911D01*
X0155587Y0132843D01*
X0155741Y0132770D01*
X0155894Y0132694D01*
X0156044Y0132615D01*
X0156193Y0132531D01*
X0156340Y0132444D01*
X0156484Y0132354D01*
X0156626Y0132260D01*
X0156766Y0132162D01*
X0156903Y0132061D01*
X0157038Y0131957D01*
X0157171Y0131850D01*
X0157300Y0131739D01*
X0157427Y0131625D01*
X0157552Y0131508D01*
X0157673Y0131389D01*
X0157791Y0131266D01*
X0157906Y0131140D01*
X0158019Y0131012D01*
X0158128Y0130881D01*
X0158233Y0130747D01*
X0158336Y0130611D01*
X0158435Y0130472D01*
X0158531Y0130331D01*
X0158623Y0130188D01*
X0158712Y0130043D01*
X0158797Y0129895D01*
X0158879Y0129745D01*
X0158957Y0129594D01*
X0159031Y0129440D01*
X0159102Y0129285D01*
X0159168Y0129128D01*
X0159231Y0128970D01*
X0159290Y0128810D01*
X0159345Y0128648D01*
X0159396Y0128486D01*
X0159443Y0128322D01*
X0159486Y0128157D01*
X0159526Y0127991D01*
X0159561Y0127824D01*
X0159592Y0127657D01*
X0159618Y0127488D01*
X0159641Y0127319D01*
X0159660Y0127150D01*
X0159674Y0126980D01*
X0159685Y0126810D01*
X0159691Y0126639D01*
X0159693Y0126469D01*
M02*
